<?xml version="1.0" encoding="UTF-8" standalone="no"?>
<!-- Created with Inkscape (http://www.inkscape.org/) -->

<svg xmlns:dc="http://purl.org/dc/elements/1.1/" xmlns:cc="http://creativecommons.org/ns#" xmlns:rdf="http://www.w3.org/1999/02/22-rdf-syntax-ns#" xmlns:svg="http://www.w3.org/2000/svg" xmlns="http://www.w3.org/2000/svg" xmlns:sodipodi="http://sodipodi.sourceforge.net/DTD/sodipodi-0.dtd" xmlns:inkscape="http://www.inkscape.org/namespaces/inkscape" width="126" height="33" id="svg5528" version="1.1" inkscape:version="0.48.5 r10040" sodipodi:docname="samsung-h-series-store-region.svg">
 <defs id="defs5530" />
 <sodipodi:namedview id="base" pagecolor="#ffffff" bordercolor="#666666" borderopacity="1.0" inkscape:pageopacity="0.0" inkscape:pageshadow="2" inkscape:zoom="5.5494505" inkscape:cx="53.401583" inkscape:cy="14.310808" inkscape:current-layer="layer1" showgrid="true" inkscape:grid-bbox="true" inkscape:document-units="px" inkscape:window-width="1531" inkscape:window-height="732" inkscape:window-x="1523" inkscape:window-y="137" inkscape:window-maximized="0" />
 <metadata id="metadata5533">
  <rdf:RDF>
   <cc:Work rdf:about="">
    <dc:format>image/svg+xml</dc:format>
    <dc:type rdf:resource="http://purl.org/dc/dcmitype/StillImage" />
    <dc:title />
   </cc:Work>
  </rdf:RDF>
 </metadata>
 <g id="layer1" inkscape:label="Layer 1" inkscape:groupmode="layer" transform="translate(0,17)">
  <g id="g6613" transform="translate(3,0)">
   <path sodipodi:nodetypes="sssssssss" inkscape:connector-curvature="0" style="color:#bebebe;fill:#000000;fill-opacity:1;stroke:none;stroke-width:2;marker:none;visibility:visible;display:inline;overflow:visible" d="M 76.979167,-14 C 75.874667,-14 75,-13.085017 75,-11.96875 l 0,15.9375 C 75,5.085017 75.874667,6 76.979167,6 L 93.020833,6 C 94.125333,6 95,5.085017 95,3.96875 l 0,-15.9375 C 95,-13.085017 94.125333,-14 93.020833,-14 z" id="rect11749-5-0-1-8-8" />
   <path style="fill:#ffffff;fill-opacity:1;stroke:none;display:inline" d="m 85,-7.4375 -5.71875,5.7187 C 79.08538,-1.5229 79,-1.2556 79,-1 l 0,1 1,0 c 0.25562,0 0.52288,-0.085 0.71875,-0.2813 L 85,-4.5625 89.28125,-0.2813 C 89.47712,-0.0854 89.74438,0 90,0 l 1,0 0,-1 c 0,-0.2556 -0.0854,-0.5229 -0.28125,-0.7188 z" id="rect6014-1-6-3-5-9" inkscape:connector-curvature="0" sodipodi:nodetypes="ccscsccsscscc" />
  </g>
  <g id="g6625" transform="translate(3,0)">
   <path sodipodi:nodetypes="sssssssss" inkscape:connector-curvature="0" style="color:#bebebe;fill:#000000;fill-opacity:1;stroke:none;stroke-width:2;marker:none;visibility:visible;display:inline;overflow:visible" d="M 1.979167,-14 C 0.874667,-14 0,-13.085017 0,-11.96875 L 0,3.96875 C 0,5.085017 0.874667,6 1.979167,6 L 18.020833,6 C 19.125333,6 20,5.085017 20,3.96875 l 0,-15.9375 C 20,-13.085017 19.125333,-14 18.020833,-14 z" id="rect11749-5-0-1-8" />
   <g id="g6593">
    <path inkscape:connector-curvature="0" sodipodi:nodetypes="ccccccccc" id="path8126" d="m 2.000002,-7 2.48438,0 2.96875,-3 0.54687,0.0156 0,12 -0.47529,8.3e-4 L 4.484382,-1 2.000002,-1 z" style="color:#bebebe;fill:#ffffff;fill-opacity:1;fill-rule:nonzero;stroke:none;stroke-width:1;marker:none;visibility:visible;display:inline;overflow:visible" />
    <path style="font-size:medium;font-style:normal;font-variant:normal;font-weight:normal;font-stretch:normal;text-indent:0;text-align:start;text-decoration:none;line-height:normal;letter-spacing:normal;word-spacing:normal;text-transform:none;direction:ltr;block-progression:tb;writing-mode:lr-tb;text-anchor:start;baseline-shift:baseline;color:#000000;fill:#ffffff;fill-opacity:1;stroke:none;stroke-width:1.10979295;marker:none;visibility:visible;display:inline;overflow:visible;enable-background:accumulate;font-family:Sans;-inkscape-font-specification:Sans" clip-path="none" d="m 13,-11 0,1.4375 c 1.83194,2.095743 2.4091,4.954542 1.78125,7.5625 l 1.9375,0 c 0.59628,-3.140152 -0.20259,-6.512173 -2.40625,-9 L 13,-11 z m -2,2 0,1.8125 c 1.4103,1.843069 1.4103,4.531931 0,6.375 L 11,1 l 1,0 0,-3 1.71875,0 c 0.63623,-2.402148 0.0964,-5.122241 -1.625,-7 L 11,-9 z" id="path8132" inkscape:connector-curvature="0" />
    <path style="color:#bebebe;fill:#ffffff;fill-opacity:1;stroke:none;stroke-width:2;marker:none;visibility:visible;display:inline;overflow:visible" d="m 12.999752,-1 1.375,0 1.125,1.09375 1.09375,-1.09375 1.40625,0 0,1.46875 -1.09375,1.0625 1.09375,1.0625 0,1.40625 -1.4375,0 -1.0625,-1.0625 -1.0625,1.0625 -1.4375,0 0,-1.40625 1.0625,-1.0625 -1.0625,-1.0625 0,-1.46875 z" id="path3761-2-3-5-4-8-9-8-0-1-7" sodipodi:nodetypes="ccccccccccccccccc" inkscape:connector-curvature="0" />
    <path style="font-size:medium;font-style:normal;font-variant:normal;font-weight:normal;font-stretch:normal;text-indent:0;text-align:start;text-decoration:none;line-height:normal;letter-spacing:normal;word-spacing:normal;text-transform:none;direction:ltr;block-progression:tb;writing-mode:lr-tb;text-anchor:start;baseline-shift:baseline;color:#000000;fill:#ffffff;fill-opacity:1;stroke:none;stroke-width:2.32782054;marker:none;visibility:visible;display:inline;overflow:visible;enable-background:accumulate;font-family:Sans;-inkscape-font-specification:Sans" mask="none" clip-path="none" d="m 10.999992,-3.9998 c 0,-1.25733 -0.31165,-2.21571 -1,-3 l -1,0 0,3 0,0.375 0,2.625 1,0 c 0.67206,-0.8369 1,-1.74267 1,-3 z" id="path6297-4-2-2" inkscape:connector-curvature="0" sodipodi:nodetypes="zccccccz" />
   </g>
  </g>
  <g id="g6605" transform="translate(3,0)">
   <path sodipodi:nodetypes="sssssssss" inkscape:connector-curvature="0" style="color:#bebebe;fill:#000000;fill-opacity:1;stroke:none;stroke-width:2;marker:none;visibility:visible;display:inline;overflow:visible" d="M 101.97917,-14 C 100.87467,-14 100,-13.085017 100,-11.96875 l 0,15.9375 C 100,5.085017 100.87467,6 101.97917,6 l 16.04166,0 C 119.12533,6 120,5.085017 120,3.96875 l 0,-15.9375 C 120,-13.085017 119.12533,-14 118.02083,-14 z" id="rect11749-5-0-1-8-4" />
   <g id="g6599">
    <path inkscape:connector-curvature="0" sodipodi:nodetypes="ccccccccc" id="path8126-2" d="m 102,-7 2.48438,0 2.96875,-3 0.54687,0.0156 0,12 -0.47529,8.3e-4 L 104.48438,-1 102,-1 z" style="color:#bebebe;fill:#ffffff;fill-opacity:1;fill-rule:nonzero;stroke:none;stroke-width:1;marker:none;visibility:visible;display:inline;overflow:visible" />
    <path style="font-size:medium;font-style:normal;font-variant:normal;font-weight:normal;font-stretch:normal;text-indent:0;text-align:start;text-decoration:none;line-height:normal;letter-spacing:normal;word-spacing:normal;text-transform:none;direction:ltr;block-progression:tb;writing-mode:lr-tb;text-anchor:start;baseline-shift:baseline;color:#000000;fill:#ffffff;fill-opacity:1;stroke:none;stroke-width:1.10979295;marker:none;visibility:visible;display:inline;overflow:visible;enable-background:accumulate;font-family:Sans;-inkscape-font-specification:Sans" clip-path="none" d="m 113,-11 0,1.4375 c 1.83194,2.095743 2.4091,4.954542 1.78125,7.5625 l 1.9375,0 c 0.59628,-3.140152 -0.20259,-6.512173 -2.40625,-9 L 113,-11 z m -2,2 0,1.8125 c 1.4103,1.843069 1.4103,4.531931 0,6.375 L 111,1 l 1,0 0,-3 1.71875,0 c 0.63623,-2.402148 0.0964,-5.122241 -1.625,-7 L 111,-9 z" id="path8132-0" inkscape:connector-curvature="0" />
    <path style="color:#bebebe;fill:#ffffff;fill-opacity:1;stroke:none;stroke-width:2;marker:none;visibility:visible;display:inline;overflow:visible" d="m 112.99975,-1 1.375,0 1.125,1.09375 L 116.5935,-1 l 1.40625,0 0,1.46875 -1.09375,1.0625 1.09375,1.0625 0,1.40625 -1.4375,0 -1.0625,-1.0625 -1.0625,1.0625 -1.4375,0 0,-1.40625 1.0625,-1.0625 -1.0625,-1.0625 0,-1.46875 z" id="path3761-2-3-5-4-8-9-8-0-1-7-8" sodipodi:nodetypes="ccccccccccccccccc" inkscape:connector-curvature="0" />
    <path style="font-size:medium;font-style:normal;font-variant:normal;font-weight:normal;font-stretch:normal;text-indent:0;text-align:start;text-decoration:none;line-height:normal;letter-spacing:normal;word-spacing:normal;text-transform:none;direction:ltr;block-progression:tb;writing-mode:lr-tb;text-anchor:start;baseline-shift:baseline;color:#000000;fill:#ffffff;fill-opacity:1;stroke:none;stroke-width:2.32782054;marker:none;visibility:visible;display:inline;overflow:visible;enable-background:accumulate;font-family:Sans;-inkscape-font-specification:Sans" mask="none" clip-path="none" d="m 110.99999,-3.9998 c 0,-1.25733 -0.31165,-2.21571 -1,-3 l -1,0 0,3 0,0.375 0,2.625 1,0 c 0.67206,-0.8369 1,-1.74267 1,-3 z" id="path6297-4-2-2-1" inkscape:connector-curvature="0" sodipodi:nodetypes="zccccccz" />
   </g>
  </g>
  <g id="g6617" transform="translate(3,0)">
   <path sodipodi:nodetypes="sssssssss" inkscape:connector-curvature="0" style="color:#bebebe;fill:#000000;fill-opacity:1;stroke:none;stroke-width:2;marker:none;visibility:visible;display:inline;overflow:visible" d="M 51.979167,-14 C 50.874667,-14 50,-13.085017 50,-11.96875 l 0,15.9375 C 50,5.085017 50.874667,6 51.979167,6 L 68.020833,6 C 69.125333,6 70,5.085017 70,3.96875 l 0,-15.9375 C 70,-13.085017 69.125333,-14 68.020833,-14 z" id="rect11749-5-0-1-8-3" />
   <path style="color:#bebebe;fill:#ffffff;fill-opacity:1;stroke:none;stroke-width:1;marker:none;visibility:visible;display:inline;overflow:visible" d="m 59,-9 0,4 -4,0 0,2 4,0 0,4 2,0 0,-4 4,0 0,-2 -4,0 0,-4 -2,0 z" id="rect31992" inkscape:connector-curvature="0" />
  </g>
  <text xml:space="preserve" style="font-size:4.7867465px;font-style:normal;font-variant:normal;font-weight:normal;font-stretch:normal;text-align:start;line-height:125%;letter-spacing:0px;word-spacing:0px;writing-mode:lr-tb;text-anchor:start;fill:#000000;fill-opacity:1;stroke:none;font-family:ibarraReal;-inkscape-font-specification:ibarraReal" x="7.5921731" y="12.640564" id="text6494" sodipodi:linespacing="125%"><tspan sodipodi:role="line" id="tspan6496" x="7.5921731" y="12.640564">Mute</tspan></text>
  <text xml:space="preserve" style="font-size:4.7867465px;font-style:normal;font-variant:normal;font-weight:normal;font-stretch:normal;text-align:start;line-height:125%;letter-spacing:0px;word-spacing:0px;writing-mode:lr-tb;text-anchor:start;fill:#000000;fill-opacity:1;stroke:none;font-family:ibarraReal;-inkscape-font-specification:ibarraReal" x="107.59217" y="12.640564" id="text6494-6" sodipodi:linespacing="125%"><tspan sodipodi:role="line" id="tspan6496-6" x="107.59217" y="12.640564">Mute</tspan></text>
  <text xml:space="preserve" style="font-size:4.7867465px;font-style:normal;font-variant:normal;font-weight:normal;font-stretch:normal;text-align:start;line-height:125%;letter-spacing:0px;word-spacing:0px;writing-mode:lr-tb;text-anchor:start;fill:#000000;fill-opacity:1;stroke:none;font-family:ibarraReal;-inkscape-font-specification:ibarraReal" x="30.960266" y="12.640564" id="text6494-6-6" sodipodi:linespacing="125%"><tspan sodipodi:role="line" id="tspan6496-6-4" x="30.960266" y="12.640564">Return</tspan></text>
  <text xml:space="preserve" style="font-size:4.7867465px;font-style:normal;font-variant:normal;font-weight:normal;font-stretch:normal;text-align:start;line-height:125%;letter-spacing:0px;word-spacing:0px;writing-mode:lr-tb;text-anchor:start;fill:#000000;fill-opacity:1;stroke:none;font-family:ibarraReal;-inkscape-font-specification:ibarraReal" x="59.747406" y="12.640564" id="text6494-6-8" sodipodi:linespacing="125%"><tspan sodipodi:role="line" id="tspan6496-6-6" x="59.747406" y="12.640564">Vol</tspan></text>
  <text xml:space="preserve" style="font-size:4.7867465px;font-style:normal;font-variant:normal;font-weight:normal;font-stretch:normal;text-align:start;line-height:125%;letter-spacing:0px;word-spacing:0px;writing-mode:lr-tb;text-anchor:start;fill:#000000;fill-opacity:1;stroke:none;font-family:ibarraReal;-inkscape-font-specification:ibarraReal" x="79.160004" y="12.640564" id="text6494-6-3" sodipodi:linespacing="125%"><tspan sodipodi:role="line" id="tspan6496-6-9" x="79.160004" y="12.640564">Chan Up</tspan></text>
  <g id="g3808">
   <path sodipodi:nodetypes="sssssssss" inkscape:connector-curvature="0" style="color:#bebebe;fill:#000000;fill-opacity:1;stroke:none;stroke-width:2;marker:none;visibility:visible;display:inline;overflow:visible" d="M 29.979167,-14 C 28.874667,-14 28,-13.085017 28,-11.96875 l 0,15.9375 C 28,5.085017 28.874667,6 29.979167,6 L 46.020833,6 C 47.125333,6 48,5.085017 48,3.96875 l 0,-15.9375 C 48,-13.085017 47.125333,-14 46.020833,-14 z" id="rect11749-5-0-1-8-9" />
   <g id="g3804">
    <path sodipodi:nodetypes="csssc" inkscape:connector-curvature="0" id="path35770-4-9" d="m 40.00005,0 0.5,0 c 1.380711,0 2.5,-1.11929 2.5,-2.5 0,-1.38071 -1.119289,-2.5 -2.5,-2.5 l -6.5,0" style="color:#000000;fill:none;stroke:#ffffff;stroke-width:2;stroke-linecap:butt;stroke-linejoin:miter;stroke-miterlimit:4;stroke-opacity:1;stroke-dashoffset:0;marker:none;visibility:visible;display:inline;overflow:visible;enable-background:accumulate" />
    <path sodipodi:nodetypes="ccccccccccccc" id="rect3217-6-2-2-4-85-2" d="m 36.99985,-8.9779 0,1 c 0,0.25689 -0.12983,0.52846 -0.3125,0.71875 l -2.28125,2.28125 2.28125,2.28125 c 0.18267,0.19029 0.3125,0.46186 0.3125,0.71875 l 0,1 -1,0 c -0.30945,0 -0.55232,-0.0903 -0.75,-0.28125 L 31.5936,-4.9779 35.24985,-8.69665 c 0.19768,-0.19095 0.44055,-0.28125 0.75,-0.28125 z" style="font-size:medium;font-style:normal;font-variant:normal;font-weight:normal;font-stretch:normal;text-indent:0;text-align:start;text-decoration:none;line-height:normal;letter-spacing:normal;word-spacing:normal;text-transform:none;direction:ltr;block-progression:tb;writing-mode:lr-tb;text-anchor:start;color:#bebebe;fill:#ffffff;fill-opacity:1;stroke:none;stroke-width:2;marker:none;visibility:visible;display:inline;overflow:visible;enable-background:accumulate;font-family:Bitstream Vera Sans;-inkscape-font-specification:Bitstream Vera Sans" inkscape:connector-curvature="0" />
   </g>
  </g>
 </g>
</svg>
