<?xml version="1.0" encoding="UTF-8" standalone="no"?>
<!-- Created with Inkscape (http://www.inkscape.org/) -->

<svg
   xmlns:dc="http://purl.org/dc/elements/1.1/"
   xmlns:cc="http://creativecommons.org/ns#"
   xmlns:rdf="http://www.w3.org/1999/02/22-rdf-syntax-ns#"
   xmlns:svg="http://www.w3.org/2000/svg"
   xmlns="http://www.w3.org/2000/svg"
   version="1.1"
   width="16"
   height="16"
   id="svg6972">
  <defs
     id="defs6974" />
  <metadata
     id="metadata6977">
    <rdf:RDF>
      <cc:Work
         rdf:about="">
        <dc:format>image/svg+xml</dc:format>
        <dc:type
           rdf:resource="http://purl.org/dc/dcmitype/StillImage" />
        <cc:license
           rdf:resource="http://creativecommons.org/licenses/by-sa/3.0/" />
        <dc:title></dc:title>
      </cc:Work>
      <cc:License
         rdf:about="http://creativecommons.org/licenses/by-sa/3.0/">
        <cc:permits
           rdf:resource="http://creativecommons.org/ns#Reproduction" />
        <cc:permits
           rdf:resource="http://creativecommons.org/ns#Distribution" />
        <cc:requires
           rdf:resource="http://creativecommons.org/ns#Notice" />
        <cc:requires
           rdf:resource="http://creativecommons.org/ns#Attribution" />
        <cc:permits
           rdf:resource="http://creativecommons.org/ns#DerivativeWorks" />
        <cc:requires
           rdf:resource="http://creativecommons.org/ns#ShareAlike" />
      </cc:License>
    </rdf:RDF>
  </metadata>
  <path
     d="M 8.0000053,-5.029411e-6 C 3.5864803,-5.029411e-6 3.134645e-7,3.5864643 3.134645e-7,8 3.134645e-7,12.413525 3.5864803,16.000005 8.0000053,16.000005 12.41353,16.000005 16,12.413525 16,8 16,3.5864643 12.41353,-5.029411e-6 8.0000053,-5.029411e-6 z m 0,2.108533729411 c 3.2585237,0 5.8914717,2.6329477 5.8914717,5.8914713 0,3.258524 -2.632948,5.891471 -5.8914717,5.891471 -3.2585236,0 -5.8914819,-2.632947 -5.8914819,-5.891471 0,-3.2585236 2.6329583,-5.8914713 5.8914819,-5.8914713 z"
     id="path24839"
     style="font-size:medium;font-style:normal;font-variant:normal;font-weight:normal;font-stretch:normal;text-indent:0;text-align:start;text-decoration:none;line-height:normal;letter-spacing:normal;word-spacing:normal;text-transform:none;direction:ltr;block-progression:tb;writing-mode:lr-tb;text-anchor:start;baseline-shift:baseline;color:#000000;fill-opacity:1;stroke:none;stroke-width:2.15384626;marker:none;visibility:visible;display:inline;overflow:visible;enable-background:new;font-family:Sans;-inkscape-font-specification:Sans" />
  <path
     d="M 4.5937085,4.2265942 A 0.53434098,0.53434098 0 0 0 4.3599577,5.1282044 l 3.3059042,3.2725113 a 0.53434098,0.53434098 0 0 0 0.066786,0.03334 0.53434098,0.53434098 0 0 0 0.066786,0.03334 0.53434098,0.53434098 0 0 0 0.066786,0.03334 0.53434098,0.53434098 0 0 0 0.03334,0 0.53434098,0.53434098 0 0 0 0.066786,0.03334 0.53434098,0.53434098 0 0 0 0.1001255,0 l 0.1669649,0 2.9719747,0 a 0.53434098,0.53434098 0 1 0 0,-1.0685751 l -2.9385818,0 -3.172333,-3.0721553 A 0.53434098,0.53434098 0 0 0 4.5936016,4.2263805 z"
     id="path25609"
     style="font-size:medium;font-style:normal;font-variant:normal;font-weight:normal;font-stretch:normal;text-indent:0;text-align:start;text-decoration:none;line-height:normal;letter-spacing:normal;word-spacing:normal;text-transform:none;direction:ltr;block-progression:tb;writing-mode:lr-tb;text-anchor:start;baseline-shift:baseline;color:#000000;fill-opacity:1;stroke:none;stroke-width:1;marker:none;visibility:visible;display:inline;overflow:visible;enable-background:new;font-family:Sans;-inkscape-font-specification:Sans" />
</svg>
