<?xml version="1.0" encoding="UTF-8" standalone="no"?>
<!-- Created with Inkscape (http://www.inkscape.org/) -->

<svg
   xmlns:dc="http://purl.org/dc/elements/1.1/"
   xmlns:cc="http://creativecommons.org/ns#"
   xmlns:rdf="http://www.w3.org/1999/02/22-rdf-syntax-ns#"
   xmlns:svg="http://www.w3.org/2000/svg"
   xmlns="http://www.w3.org/2000/svg"
   version="1.1"
   width="16"
   height="16"
   id="svg8960">
  <defs
     id="defs8962" />
  <metadata
     id="metadata8965">
    <rdf:RDF>
      <cc:Work
         rdf:about="">
        <dc:format>image/svg+xml</dc:format>
        <dc:type
           rdf:resource="http://purl.org/dc/dcmitype/StillImage" />
        <cc:license
           rdf:resource="http://creativecommons.org/licenses/by-sa/3.0/" />
        <dc:title></dc:title>
      </cc:Work>
      <cc:License
         rdf:about="http://creativecommons.org/licenses/by-sa/3.0/">
        <cc:permits
           rdf:resource="http://creativecommons.org/ns#Reproduction" />
        <cc:permits
           rdf:resource="http://creativecommons.org/ns#Distribution" />
        <cc:requires
           rdf:resource="http://creativecommons.org/ns#Notice" />
        <cc:requires
           rdf:resource="http://creativecommons.org/ns#Attribution" />
        <cc:permits
           rdf:resource="http://creativecommons.org/ns#DerivativeWorks" />
        <cc:requires
           rdf:resource="http://creativecommons.org/ns#ShareAlike" />
      </cc:License>
    </rdf:RDF>
  </metadata>
  <path
     d="m 13.1094,11.539708 c -0.547811,0.379255 -0.821718,0.505672 -1.200972,0.505672 -0.484602,0 -0.927066,-0.273905 -1.369529,-0.863857 -0.358185,-0.505672 -0.526744,-0.863859 -1.43274,-3.1604533 1.28525,-2.1280368 2.528365,-3.3079417 3.476499,-3.3079417 0.06321,0 0.168557,0 0.294976,0.021069 l 0.189627,0 c 0.800648,0 1.432739,-0.526743 1.432739,-1.1799027 0,-0.5267418 -0.379255,-0.9481362 -0.863857,-0.9481362 -1.30632,0 -2.949759,1.5591603 -4.9092385,4.6353323 l -1.4748785,-4.361426 -0.547812,0 C 5.7771485,3.1329008 5.2082647,3.21718 4.0915722,3.343598 L 3.9862238,3.9546191 C 5.3978918,4.2706642 5.6296605,4.5235027 6.3460293,6.419773 L 6.8727715,7.7893031 C 5.5243126,10.275524 4.4918952,11.286872 3.3119936,11.286872 c -0.084279,0 -0.1685577,0 -0.273906,-0.02107 -0.2528361,-0.02107 -0.4424636,-0.04214 -0.484603,-0.04214 -0.6110204,0 -1.0534845,0.442464 -1.0534845,1.053484 0,0.67423 0.4003247,1.116695 0.9902755,1.116695 1.4327376,0 2.8022709,-1.348464 4.7196111,-4.7196119 l 0.4846028,1.158833 c 0.7163688,1.7698529 0.8427881,2.0437609 1.1799028,2.4651539 0.4846024,0.65316 1.1588337,1.011346 1.9173427,1.011346 0.884926,0 1.959482,-0.526743 2.781199,-1.348461 L 13.1094,11.539708"
     id="path8973"
     style="font-size:17.31025314px;font-style:italic;font-variant:normal;font-weight:normal;font-stretch:normal;text-align:start;line-height:125%;letter-spacing:0px;word-spacing:0px;writing-mode:lr-tb;text-anchor:start;fill-opacity:1;stroke:none;font-family:URW Bookman L;-inkscape-font-specification:URW Bookman L Italic" />
</svg>
