<?xml version="1.0" encoding="UTF-8" standalone="no"?>
<!-- Created with Inkscape (http://www.inkscape.org/) -->

<svg xmlns:dc="http://purl.org/dc/elements/1.1/" xmlns:cc="http://creativecommons.org/ns#" xmlns:rdf="http://www.w3.org/1999/02/22-rdf-syntax-ns#" xmlns:svg="http://www.w3.org/2000/svg" xmlns="http://www.w3.org/2000/svg" xmlns:sodipodi="http://sodipodi.sourceforge.net/DTD/sodipodi-0.dtd" xmlns:inkscape="http://www.inkscape.org/namespaces/inkscape" width="297mm" height="210mm" viewBox="0 0 297 210" version="1.1" id="svg1523" inkscape:version="0.92.3 (2405546, 2018-03-11)" sodipodi:docname="logo.svg">
 <defs id="defs1517">
  <clipPath clipPathUnits="userSpaceOnUse" id="clipPath2377">
   <rect style="color:#000000;clip-rule:nonzero;display:inline;overflow:visible;visibility:visible;opacity:0.81999966;isolation:auto;mix-blend-mode:normal;color-interpolation:sRGB;color-interpolation-filters:linearRGB;solid-color:#000000;solid-opacity:1;vector-effect:none;fill:#0071bc;fill-opacity:1;fill-rule:nonzero;stroke:none;stroke-width:8.9137764;stroke-linecap:square;stroke-linejoin:miter;stroke-miterlimit:4;stroke-dasharray:none;stroke-dashoffset:0;stroke-opacity:1;marker:none;paint-order:markers fill stroke;color-rendering:auto;image-rendering:auto;shape-rendering:auto;text-rendering:auto;enable-background:accumulate" id="rect2379" width="297" height="210" x="2.8421709e-14" y="82.22493" />
  </clipPath>
 </defs>
 <sodipodi:namedview id="base" pagecolor="#ffffff" bordercolor="#666666" borderopacity="1.0" inkscape:pageopacity="0.0" inkscape:pageshadow="2" inkscape:zoom="1.0179565" inkscape:cx="601.60768" inkscape:cy="316.45396" inkscape:document-units="mm" inkscape:current-layer="layer1" showgrid="false" inkscape:window-width="1536" inkscape:window-height="800" inkscape:window-x="0" inkscape:window-y="27" inkscape:window-maximized="1" />
 <metadata id="metadata1520">
  <rdf:RDF>
   <cc:Work rdf:about="">
    <dc:format>image/svg+xml</dc:format>
    <dc:type rdf:resource="http://purl.org/dc/dcmitype/StillImage" />
    <dc:title />
   </cc:Work>
  </rdf:RDF>
 </metadata>
 <g inkscape:label="Layer 1" inkscape:groupmode="layer" id="layer1" transform="translate(0,-87)">
  <rect x="496.30725" y="232.35962" width="0.13363476" height="0" id="rect16-6" style="opacity:0.40740739;fill:#000cff;stroke-width:0.26458332" />
  <path style="display:inline;fill:#0071bc;fill-opacity:1;stroke:#0071bc;stroke-width:0.73847777px;stroke-linecap:butt;stroke-linejoin:miter;stroke-opacity:1" d="m 31.123643,193.17081 c -0.156071,-0.0207 -0.273351,0.033 -0.401679,0.0573 -0.659608,0.12161 -1.04181,0.75905 -1.549061,1.14741 l -2.294751,28.5697 0.17256,19.44808 -6.540057,2.92581 v 3.95846 l -2.409492,0.5737 v 2.29477 l 1.663596,0.1146 v 20.42334 c -2.57049,13.63317 -7.023045,15.34785 -17.4974029,17.32541 l -0.1725601,2.29477 4.9338897,2.06528 v 131.83378 c -28.8650967,1.56476 -42.2866827,3.41518 -55.5905717,7.74481 0.01814,1.75998 -0.0202,3.27189 -0.0568,4.70427 H 131.11823 c -0.0247,-1.28155 -0.0247,-2.7277 0,-4.47478 -12.20203,-3.62097 -30.83951,-6.27388 -51.918972,-6.94166 V 292.13205 l 5.794364,-1.31947 0.172562,-3.84373 C 72.586687,286.22093 69.592307,283.35608 65.832955,270.84818 v -16.92386 l 0.458938,0.51632 2.581514,-1.72106 -7.285761,-8.31852 -4.589514,-1.37685 v -13.53906 l 1.26211,-2.0079 -6.425308,-4.24529 0.286749,-8.77745 -8.777344,-9.58064 -9.12175,9.9822 -1.204641,-20.65279 c -0.798032,-0.6521 -1.424975,-0.97546 -1.893093,-1.03264 z m 9.809992,20.36599 v 9.12167 l -4.589523,0.91787 v -9.12167 z m 0.516403,0 h 5.163041 v 9.12167 h -5.163041 z m 5.679444,0 4.130549,1.03264 v 9.12162 l -4.130549,-1.03259 z m 12.73589,35.05241 1.147379,0.0573 0.803163,0.91792 -1.950542,-0.9753 z" id="path113112-4-2-9-0" inkscape:connector-curvature="0" sodipodi:nodetypes="cccccccccccccccccccccccccccccccccccccccccccccccccccccccccc" clip-path="url(#clipPath2377)" transform="matrix(0.8453988,0,0,0.8453988,25.04278,29.683434)" />
  <g id="g2299" transform="matrix(1.2719206,0,0,1.2719206,-336.48259,-142.518)">
   <path style="fill:#0071bc;fill-opacity:1;stroke-width:0.26458332" sodipodi:nodetypes="ccccccccccccccccccccccccccccccccccccccccccccccccccccscccccccccc" inkscape:connector-curvature="0" id="path11-5-3" d="m 462.13458,196.38694 -36.3554,47.46842 18.38647,25.55555 c 0.35589,-0.0647 0.70993,-0.13289 1.06195,-0.20412 0.005,-0.001 0.0107,-0.002 0.016,-0.003 0.0151,-0.003 0.0299,-0.007 0.045,-0.01 0.32833,-0.0668 0.65495,-0.13633 0.97978,-0.20877 0.0397,-0.009 0.0792,-0.0179 0.11886,-0.0269 0.28671,-0.0646 0.57187,-0.13157 0.85576,-0.20051 0.0901,-0.0219 0.17994,-0.0444 0.26975,-0.0667 0.25096,-0.0623 0.50064,-0.12656 0.74931,-0.19224 0.0804,-0.0212 0.16113,-0.042 0.24133,-0.0636 0.26831,-0.0722 0.53493,-0.14664 0.80047,-0.22272 0.0609,-0.0175 0.12213,-0.0345 0.18293,-0.0522 0.29055,-0.0844 0.57952,-0.17148 0.86661,-0.26046 0.038,-0.0118 0.0763,-0.0233 0.11421,-0.0351 0.66113,-0.2066 1.31306,-0.42455 1.95492,-0.65474 0.32003,-0.11478 0.63737,-0.23297 0.9524,-0.35347 0.005,-0.002 0.0103,-0.004 0.0155,-0.006 0.0234,-0.009 0.0464,-0.0184 0.0698,-0.0274 0.27043,-0.10403 0.53901,-0.21014 0.80564,-0.31833 0.0884,-0.0359 0.17606,-0.0727 0.26407,-0.10903 0.21199,-0.0875 0.42301,-0.176 0.63251,-0.26614 0.0991,-0.0427 0.19756,-0.086 0.29611,-0.12919 0.18807,-0.0825 0.37522,-0.16606 0.56121,-0.25063 0.11891,-0.0541 0.23748,-0.10837 0.35553,-0.1633 0.17415,-0.081 0.34711,-0.16314 0.51935,-0.24598 0.11032,-0.0531 0.22069,-0.10639 0.33021,-0.16019 0.20026,-0.0984 0.39878,-0.19839 0.59635,-0.29921 0.0745,-0.038 0.14959,-0.0753 0.22376,-0.11369 0.21843,-0.11306 0.43453,-0.22813 0.64957,-0.34416 0.0652,-0.0352 0.13147,-0.0694 0.19637,-0.10491 0.27283,-0.14907 0.54312,-0.30043 0.81029,-0.45423 l -20.6039,-28.86387 29.51447,-38.61367 z m -70.80911,0.0357 30.26223,42.25737 c -5.77047,7.54515 -11.54099,15.09026 -17.31161,22.63531 1.36503,1.02121 2.83621,1.97224 4.40232,2.84375 8.73716,-11.49775 17.47456,-22.99532 26.21184,-34.49298 l -24.11378,-33.22691 z m 70.93882,71.03236 c -0.006,0.004 -0.0121,0.007 -0.0181,0.0103 -0.26534,0.15704 -0.53302,0.31246 -0.80357,0.46561 -0.004,0.002 -0.008,0.004 -0.0114,0.006 -0.006,0.003 -0.0124,0.007 -0.0186,0.0103 -0.26775,0.15131 -0.53805,0.3006 -0.8108,0.44804 -0.007,0.004 -0.0133,0.008 -0.0202,0.0114 -0.0128,0.007 -0.026,0.0133 -0.0388,0.0202 -0.27326,0.14724 -0.54866,0.29285 -0.82682,0.43615 -0.29129,0.15005 -0.58504,0.29824 -0.8816,0.4439 -3.5557,1.74642 -7.48536,3.17404 -11.6949,4.21938 -0.004,7.9e-4 -0.007,0.002 -0.0108,0.003 l 2.59777,3.61064 h 19.45101 z m -63.01476,0.43253 c -2.35194,3.07511 -4.70393,6.15018 -7.0559,9.22527 h 6.64145 c 1.73081,-2.27773 3.46163,-4.55545 5.19245,-6.83317 -1.66821,-0.73185 -3.2638,-1.5312 -4.778,-2.3921 z" />
   <path style="fill:#0071bc;fill-opacity:1;stroke:none;stroke-width:1.00541663;stroke-linejoin:miter;stroke-miterlimit:4;stroke-dasharray:none;stroke-opacity:1" d="m 430.3825,211.79328 c -2.34183,0 -4.84385,0.1817 -7.0962,0.39791 4.01265,5.23346 7.34208,9.66481 11.17399,14.69781 -2.15073,-4.62834 -6.57073,-9.06659 -5.04259,-11.34918 1.51267,-2.25946 4.29958,-1.87895 4.51187,-1.87895 4.46842,0 8.76968,0.50466 12.79096,1.43867 l 0.94257,-1.29811 c -5.36332,-1.38067 -11.18883,-2.00815 -17.2806,-2.00815 z m -0.24443,1.33119 c -0.6602,0.37615 -1.30461,0.90959 -1.82004,1.67948 -0.25573,0.38198 -0.38233,0.79895 -0.45424,1.22215 -0.68195,-0.89717 -1.34822,-1.77776 -2.05879,-2.70836 1.45261,-0.10672 2.91484,-0.18569 4.33307,-0.19327 z m 24.44554,2.89284 -0.86816,1.24024 c 12.38932,4.85157 20.76979,14.11824 20.76979,24.73854 0,15.63847 -18.16758,28.32695 -40.55567,28.32695 -22.38808,0 -40.56393,-12.68848 -40.56393,-28.32695 0,-8.51635 5.38998,-16.16076 13.91543,-21.35684 l -2.62103,-3.99355 c -13.37366,5.6705 -22.2498,15.62355 -22.2498,26.95443 0,17.63016 21.49012,31.9319 47.97226,31.9319 26.48215,0 47.98054,-14.30174 47.98054,-31.9319 0,-11.75621 -9.55743,-22.0378 -23.77943,-27.58282 z m -50.39331,2.32338 1.27021,1.93528 c -8.14336,5.35271 -13.41778,13.05281 -13.41778,21.72012 0,8.33175 4.85069,15.80478 12.45195,21.11241 7.60126,5.30762 17.99093,8.53746 29.43489,8.53746 11.44397,0 21.83154,-3.22976 29.43077,-8.53746 7.59922,-5.30771 12.44781,-12.78089 12.44782,-21.11241 0,-4.02 -1.1384,-7.82539 -3.15382,-11.29337 2.81084,3.94609 4.38578,8.32002 4.38578,12.89741 0,8.27735 -5.0428,15.8683 -13.46946,21.47569 -8.42666,5.60738 -20.18524,9.13329 -33.18816,9.13329 -13.00292,0 -24.75946,-3.52597 -33.18402,-9.13329 -8.42455,-5.60733 -13.46532,-13.19813 -13.46532,-21.47569 0,-10.35916 7.98898,-19.6652 20.45714,-25.25944 z" id="P1-5-3" inkscape:connector-curvature="0" />
  </g>
  <g transform="matrix(0.27707811,0,0,0.27707811,95.473885,249.56346)" style="font-style:normal;font-variant:normal;font-weight:normal;font-stretch:normal;font-size:53.6051178px;line-height:125%;font-family:Lobster;-inkscape-font-specification:Lobster;text-align:start;letter-spacing:0px;word-spacing:0px;writing-mode:lr-tb;text-anchor:start;opacity:0.81999966;fill:#0071bc;fill-opacity:1;stroke:none" id="text5791">
   <g id="g2332" transform="translate(-530.90898,-192.41996)">
    <path style="fill:#0071bc" inkscape:connector-curvature="0" id="path8313" d="m 853.91488,277.06531 h -7.71913 l 4.12759,-19.45866 c -2.35865,-1.07208 -4.75301,-1.71534 -7.18309,-1.92978 -2.03701,4.39563 -3.71663,8.89846 -5.03888,13.50849 -1.28653,4.5743 -1.92979,8.23731 -1.92978,10.98904 -1e-5,1.25079 0.25015,2.25141 0.75047,3.00189 -2.716,-10e-6 -4.55644,-0.42885 -5.52133,-1.28652 -1.10784,-0.9649 -1.66176,-2.53731 -1.66176,-4.71725 0,-2.17994 0.71473,-5.27117 2.14421,-9.27369 1.4652,-4.03824 3.37711,-8.11222 5.73575,-12.22196 -3.57369,0.21444 -5.66428,1.14359 -6.2718,2.78746 0.14294,2e-5 0.28589,0.19657 0.42884,0.58966 0.17868,0.35738 0.26802,0.78622 0.26802,1.28652 0,0.50033 -0.2859,0.94704 -0.85768,1.34013 -0.57179,0.35738 -1.32226,0.53606 -2.25141,0.53605 -0.89342,10e-6 -1.66176,-0.26801 -2.30502,-0.80408 -0.60753,-0.53603 -0.91129,-1.30437 -0.91129,-2.30502 0,-1.85829 1.03637,-3.41283 3.1091,-4.66364 2.07272,-1.2865 4.6815,-1.92976 7.82635,-1.92979 0.75045,3e-5 1.67961,0.0536 2.78746,0.16082 2.9304,-4.64575 6.02162,-8.43384 9.27369,-11.36429 3.28775,-2.96611 6.41471,-4.44918 9.38089,-4.44922 1.60812,4e-5 3.01972,0.2502 4.23481,0.75047 l -8.41601,39.45337 m -3.10909,-21.81729 3.10909,-14.58059 c -3.00191,1.60819 -6.21821,5.84299 -9.64892,12.70442 2.57303,0.50033 4.75297,1.12573 6.53983,1.87617" />
    <path style="fill:#0071bc" inkscape:connector-curvature="0" id="path8315" d="m 897.10553,242.65082 c -2e-5,-2.1799 -1.08999,-3.26987 -3.26991,-3.26991 -1.89407,4e-5 -3.71664,1.34016 -5.46772,4.02038 -1.75112,2.64455 -3.14485,5.89659 -4.1812,9.75614 -1.00064,3.85958 -1.50096,7.37965 -1.50095,10.5602 -10e-6,3.18058 0.46457,5.4856 1.39374,6.91506 0.92914,1.42948 2.51942,2.14421 4.77085,2.14421 4.50281,0 8.07648,-1.78683 10.72103,-5.36051 l 1.23291,0.53605 c -0.89344,2.25142 -2.26931,4.16333 -4.12759,5.73575 -3.39501,2.8232 -7.11163,4.2348 -11.14987,4.2348 -4.03826,0 -7.0044,-1.0185 -8.89845,-3.05549 -1.89404,-2.03699 -2.84107,-5.41411 -2.84107,-10.13137 0,-4.71723 0.83982,-9.38087 2.51944,-13.99094 0.96489,-2.57301 2.12633,-4.86016 3.48434,-6.86145 1.39372,-2.03696 3.18056,-3.71658 5.36051,-5.03888 2.21566,-1.32222 4.66363,-1.98335 7.3439,-1.98339 2.71597,4e-5 4.87804,0.5897 6.48622,1.76897 1.64386,1.14361 2.46581,2.94832 2.46583,5.41412 -2e-5,3.28781 -1.25081,4.93169 -3.75235,4.93167 -1.25081,2e-5 -2.26931,-0.46455 -3.0555,-1.39374 0.64324,-0.3216 1.21503,-0.96486 1.71537,-1.92978 0.50029,-1.0006 0.75045,-2.00123 0.75047,-3.00189" />
    <path style="fill:#0071bc" inkscape:connector-curvature="0" id="path8317" d="m 913.404,249.7803 c 4.57428,3e-5 6.86143,2.85897 6.86145,8.57682 0.14293,0.0715 0.33948,0.10723 0.58966,0.10721 2.43007,2e-5 5.1818,-1.07208 8.25519,-3.21631 l 0.48244,1.44734 c -2.10849,2.28717 -5.27119,3.77025 -9.4881,4.44923 -0.42886,4.89594 -1.84046,8.80911 -4.23481,11.73952 -2.35864,2.93041 -5.21757,4.39562 -8.57682,4.39562 -2.64452,0 -4.73512,-0.679 -6.27179,-2.037 -1.53668,-1.35799 -2.30502,-3.50219 -2.30502,-6.43261 0,-3.71661 1.05423,-7.64765 3.1627,-11.79313 1.0721,-2.07271 2.60877,-3.78807 4.61004,-5.14609 2.00125,-1.3937 4.30626,-2.09057 6.91506,-2.0906 m -3.96678,22.67497 c 1.32225,0 2.57303,-1.0721 3.75236,-3.21631 1.21503,-2.14419 2.03698,-4.78871 2.46583,-7.93356 -0.9649,-0.2144 -1.44735,-1.00061 -1.44734,-2.35862 -10e-6,-1.35798 0.55391,-2.28713 1.66176,-2.78747 -0.0715,-1.14355 -0.26804,-1.94763 -0.58965,-2.41223 -0.28591,-0.46455 -0.76836,-0.69684 -1.44734,-0.69687 -1.17933,3e-5 -2.34077,0.89345 -3.48433,2.68026 -1.14359,1.78686 -2.03701,3.84172 -2.68026,6.16459 -0.64327,2.3229 -0.9649,4.37776 -0.96489,6.16459 -10e-6,1.75111 0.19654,2.93042 0.58965,3.53794 0.3931,0.57179 1.10783,0.85768 2.14421,0.85768" />
    <path style="fill:#0071bc" inkscape:connector-curvature="0" id="path8319" d="m 926.66875,250.26275 h 7.71914 l -0.69687,3.32352 c 0.82194,-0.71471 1.48307,-1.25077 1.98339,-1.60816 0.5003,-0.39308 1.1793,-0.76831 2.037,-1.1257 0.85766,-0.39308 1.76895,-0.58963 2.73386,-0.58966 0.96487,3e-5 1.76895,0.39313 2.41223,1.17931 0.67898,0.78623 1.01848,1.71539 1.0185,2.78747 -2e-5,1.07212 -0.33952,2.00128 -1.0185,2.78746 -0.67902,0.78623 -1.50096,1.17934 -2.46584,1.17932 -0.92917,2e-5 -1.57243,-0.17867 -1.92978,-0.53606 -0.32165,-0.39308 -0.50033,-0.80405 -0.53605,-1.23291 -0.10723,-1.17929 -0.44673,-1.76895 -1.0185,-1.76897 -1.14359,2e-5 -2.44798,0.67902 -3.91317,2.03699 l -4.28841,20.36995 h -7.71914 l 5.68214,-26.80256" />
    <path style="fill:#0071bc" inkscape:connector-curvature="0" id="path8321" d="m 960.11584,250.26275 h 7.71913 l -3.85956,18.22574 c -0.14297,0.60753 -0.21445,1.21506 -0.21443,1.82257 -2e-5,1.25079 0.73259,1.87619 2.19781,1.87618 1.9655,1e-5 3.41284,-1.57241 4.34202,-4.71725 h 2.25141 c -2.32291,6.6113 -5.91445,9.91695 -10.77462,9.91695 -1.5367,0 -2.76962,-0.42884 -3.69876,-1.28652 -0.92917,-0.89342 -1.46522,-2.16207 -1.60815,-3.80597 -2.07274,3.39499 -4.71726,5.09249 -7.93356,5.09249 -1.71537,0 -3.1091,-0.53605 -4.1812,-1.60816 -1.03636,-1.0721 -1.55455,-2.68025 -1.55455,-4.82446 0,-0.96488 0.14295,-2.12632 0.42884,-3.48433 l 3.64515,-17.20724 h 7.71914 l -3.85957,18.22574 c -0.10722,0.53606 -0.16082,1.03637 -0.16081,1.50094 -10e-6,1.46521 0.53604,2.19782 1.60815,2.19781 1.92977,1e-5 3.35924,-1.57241 4.28841,-4.71725 l 3.64515,-17.20724" />
    <path style="fill:#0071bc" inkscape:connector-curvature="0" id="path8323" d="m 985.68045,257.66025 c -2e-5,-1.82255 -0.64328,-2.73383 -1.92979,-2.73386 -1.78685,3e-5 -3.18058,1.64391 -4.1812,4.93167 l -3.64515,17.20725 h -7.71913 l 5.68214,-26.80256 h 7.71914 l -0.58966,2.78746 c 1.75109,-2.00123 3.84169,-3.00185 6.2718,-3.00188 1.82255,3e-5 3.26989,0.50034 4.34201,1.50094 1.07208,1.00065 1.60813,2.41225 1.60816,4.23481 -3e-5,1.78685 -0.42887,4.37776 -1.28653,7.77274 -0.8577,3.35926 -1.28654,5.4856 -1.28652,6.37901 -2e-5,1.50095 0.71472,2.25142 2.14421,2.25141 1.07208,1e-5 1.91189,-0.37523 2.51944,-1.12571 0.6075,-0.75046 1.26863,-1.94764 1.98339,-3.59154 h 2.25141 c -2.25144,6.6113 -5.57495,9.91695 -9.97055,9.91695 -2.17996,0 -3.78811,-0.57179 -4.82446,-1.71537 -1.00064,-1.17931 -1.50096,-2.50156 -1.50094,-3.96677 -2e-5,-1.50094 0.39309,-3.93104 1.17931,-7.2903 0.82193,-3.35924 1.2329,-5.61065 1.23292,-6.75425 m 10.45299,-16.51037 0.32163,0.0536 c -0.32165,1.3223 -1.35802,2.55521 -3.10909,3.69876 -1.71539,1.10787 -3.37714,1.66179 -4.98528,1.66176 -1.57243,3e-5 -3.32353,-0.3216 -5.2533,-0.9649 -1.92979,-0.67896 -3.46647,-1.01846 -4.61004,-1.01849 -1.14358,3e-5 -2.21568,0.46461 -3.21631,1.39373 l -0.32163,-0.10721 c 1.7511,-3.50217 4.73511,-5.25327 8.95206,-5.2533 1.35798,3e-5 2.93039,0.3038 4.71725,0.91128 1.78681,0.57183 3.28776,0.85772 4.50283,0.85769 1.25076,3e-5 2.25139,-0.41094 3.00188,-1.23292" />
    <path style="fill:#0071bc" inkscape:connector-curvature="0" id="path8325" d="m 1015.2654,250.26275 h 7.7192 l -3.8596,18.22574 c -0.143,0.60753 -0.2144,1.21506 -0.2144,1.82257 0,1.25079 0.7326,1.87619 2.1978,1.87618 0.4646,1e-5 0.8577,-0.0715 1.1793,-0.21442 -0.7862,2.037 -1.5367,3.4486 -2.2514,4.23481 -0.7148,0.7862 -1.769,1.17931 -3.1627,1.17931 -1.3938,0 -2.5552,-0.42884 -3.4843,-1.28652 -0.9292,-0.89342 -1.501,-2.12634 -1.7154,-3.69876 -2.18,3.32352 -4.8423,4.98528 -7.9872,4.98528 -2.037,0 -3.73446,-0.69687 -5.09245,-2.0906 -1.358,-1.39373 -2.037,-3.57367 -2.037,-6.53983 0,-4.0025 1.12571,-8.02288 3.37713,-12.06115 1.07212,-1.92976 2.51942,-3.52004 4.34202,-4.77085 1.8226,-1.2865 3.8417,-1.92976 6.0574,-1.92979 2.8946,3e-5 4.342,0.91132 4.342,2.73386 v 0.37524 l 0.5896,-2.84107 m -3.2699,3.05549 c -1.4295,2e-5 -2.7517,0.89344 -3.9668,2.68026 -1.1793,1.75112 -2.0727,3.75237 -2.6802,6.00377 -0.5718,2.21569 -0.8577,4.02039 -0.8577,5.41412 0,1.358 0.089,2.35863 0.268,3.00188 0.1787,0.60753 0.4289,1.03637 0.7505,1.28653 0.4646,0.32163 1.0721,0.48245 1.8226,0.48244 0.7504,1e-5 1.5724,-0.41097 2.4658,-1.23292 0.9292,-0.85767 1.5367,-2.01911 1.8226,-3.48433 l 2.573,-12.11476 c 0,-0.46455 -0.1787,-0.91126 -0.536,-1.34012 -0.3574,-0.46456 -0.9113,-0.69685 -1.6618,-0.69687" />
    <path style="fill:#0071bc" inkscape:connector-curvature="0" id="path8327" d="m 1026.0828,276.9581 c -1.6796,-1.10784 -2.5195,-2.32289 -2.5195,-3.64515 0,-1.35799 0.411,-2.44796 1.233,-3.26991 0.8219,-0.85768 1.8047,-1.28652 2.9482,-1.28653 1.1794,1e-5 2.0906,0.37525 2.7339,1.12571 0.6433,0.75048 0.9649,1.85832 0.9649,3.32352 0,1.42947 -0.6433,3.18057 -1.9298,5.2533 -1.2508,2.10847 -2.9304,3.8953 -5.0389,5.36051 -0.3216,-0.21442 -0.4824,-0.58966 -0.4824,-1.12571 0,-0.50031 0.4646,-1.23292 1.3937,-2.1978 0.9292,-0.9649 1.3938,-1.71537 1.3938,-2.25142 0,-0.53605 -0.2323,-0.96489 -0.6969,-1.28652" />
    <path style="fill:#0071bc" inkscape:connector-curvature="0" id="path8329" d="m 1073.9329,240.39941 c 0.4288,0.82198 0.6432,1.91195 0.6433,3.26991 -10e-5,1.32229 -0.411,2.5016 -1.233,3.53794 -0.7862,1.00065 -1.769,1.50097 -2.9482,1.50094 -1.1436,3e-5 -2.0371,-0.37521 -2.6803,-1.12571 0.7147,-0.42881 1.2865,-1.07207 1.7154,-1.92978 0.4645,-0.89339 0.6968,-1.82254 0.6968,-2.78747 0,-0.96485 -0.3216,-1.7868 -0.9649,-2.46583 -0.6432,-0.67896 -1.6796,-1.01846 -3.1091,-1.0185 -1.4294,4e-5 -2.5909,0.42888 -3.4843,1.28652 -0.8934,0.82198 -1.3401,1.92982 -1.3401,3.32352 0,1.39376 0.2859,2.64455 0.8577,3.75236 0.6075,1.07213 1.3579,1.98341 2.2514,2.73386 l 2.9483,2.68026 c 1.0363,0.96491 2.0012,1.9298 2.8946,2.89467 0.8934,0.96491 1.626,2.2157 2.1979,3.75236 0.6074,1.50096 0.9112,3.16272 0.9112,4.98528 0,4.25268 -1.4652,7.55832 -4.3956,9.91694 -2.9304,2.32289 -6.4862,3.48433 -10.6674,3.48434 -3.3235,-10e-6 -6.0574,-0.76835 -8.2016,-2.30502 -2.1085,-1.53668 -3.1627,-3.75236 -3.1627,-6.64704 0,-2.89467 0.8041,-5.12821 2.4122,-6.70064 1.6082,-1.5724 3.4308,-2.35861 5.4678,-2.35862 1.1793,10e-6 2.2335,0.28591 3.1627,0.85768 0.9648,0.53606 1.483,1.42948 1.5545,2.68025 -1.6796,2e-5 -3.1448,0.41099 -4.3956,1.23292 -1.2508,0.82196 -1.8762,2.01914 -1.8762,3.59154 0,1.57243 0.4467,2.85895 1.3401,3.85957 0.8935,1.00063 2.1978,1.50095 3.9132,1.50095 1.7511,0 3.1984,-0.62539 4.342,-1.87618 1.1793,-1.28652 1.769,-2.89467 1.769,-4.82446 0,-1.96551 -0.3752,-3.71661 -1.1257,-5.25331 -0.7505,-1.53666 -1.6796,-2.89465 -2.7875,-4.07398 l -3.2163,-3.43073 c -2.573,-2.71597 -3.8596,-5.41409 -3.8595,-8.09437 -1e-4,-2.68023 1.1793,-4.93164 3.5379,-6.75425 2.3943,-1.82253 5.3426,-2.73382 8.8448,-2.73386 4.074,4e-5 6.7364,1.17935 7.9872,3.53794" />
    <path style="fill:#0071bc" inkscape:connector-curvature="0" id="path8331" d="m 1080.0606,248.27936 h 7.7192 l -0.8577,4.02038 c 1.7868,-1.53665 3.8774,-2.30499 6.2718,-2.30502 4.3599,3e-5 6.5398,2.82323 6.5398,8.46961 0,5.8251 -1.3401,10.61382 -4.0204,14.36617 -0.9649,1.32227 -2.2335,2.41224 -3.8059,3.26992 -1.5725,0.85768 -3.4308,1.28652 -5.575,1.28652 -2.1442,0 -3.5915,-0.64326 -4.342,-1.92979 l -2.7874,13.07965 -8.0944,1.92979 8.952,-42.18723 m 4.8245,24.44393 c 1.7511,10e-6 3.2163,-0.87554 4.3956,-2.62665 2.0727,-3.03761 3.1091,-6.96865 3.1091,-11.79312 0,-2.96613 -0.8934,-4.44921 -2.6802,-4.44923 -1.4295,2e-5 -2.6624,0.87557 -3.6988,2.62665 l -3.1627,15.00944 c 0.2859,0.82195 0.9649,1.23292 2.037,1.23291" />
    <path style="fill:#0071bc" inkscape:connector-curvature="0" id="path8333" d="m 1119.1254,250.26275 h 7.7191 l -3.8596,18.22574 c -0.1429,0.60753 -0.2144,1.17932 -0.2144,1.71536 0,1.53669 0.7326,2.30503 2.1978,2.30502 1.894,10e-6 3.3414,-1.67962 4.342,-5.03888 h 2.2515 c -2.323,6.6113 -5.9145,9.91695 -10.7747,9.91695 -1.5009,0 -2.716,-0.41097 -3.6451,-1.23292 -0.9292,-0.85768 -1.4652,-2.0906 -1.6082,-3.69875 -2.2157,3.28778 -4.8781,4.93167 -7.9871,4.93167 -2.037,0 -3.7345,-0.69687 -5.0925,-2.0906 -1.358,-1.39373 -2.037,-3.57367 -2.037,-6.53983 0,-4.0025 1.1257,-8.02288 3.3771,-12.06115 1.0721,-1.92976 2.5194,-3.52004 4.342,-4.77085 1.8226,-1.2865 3.8417,-1.92976 6.0574,-1.92979 2.8947,3e-5 4.342,0.91132 4.342,2.73386 v 0.37524 l 0.5897,-2.84107 m -3.2699,3.05549 c -1.4295,2e-5 -2.7518,0.89344 -3.9668,2.68026 -1.1793,1.75112 -2.0728,3.75237 -2.6803,6.00377 -0.5718,2.21569 -0.8577,4.02039 -0.8577,5.41412 0,1.358 0.089,2.35863 0.2681,3.00188 0.1786,0.60753 0.4288,1.03637 0.7504,1.28653 0.4646,0.32163 1.0721,0.48245 1.8226,0.48244 0.7505,1e-5 1.5724,-0.41097 2.4658,-1.23292 0.9292,-0.85767 1.5367,-2.01911 1.8226,-3.48433 l 2.5731,-12.11476 c -10e-5,-0.46455 -0.1787,-0.91126 -0.5361,-1.34012 -0.3574,-0.46456 -0.9113,-0.69685 -1.6617,-0.69687" />
    <path style="fill:#0071bc" inkscape:connector-curvature="0" id="path8335" d="m 1135.2278,246.13515 c -0.8219,-0.82191 -1.2329,-1.82254 -1.2329,-3.00188 0,-1.17928 0.411,-2.17991 1.2329,-3.00189 0.822,-0.85764 1.8226,-1.28648 3.0019,-1.28652 1.1793,4e-5 2.18,0.42888 3.0019,1.28652 0.8577,0.82198 1.2865,1.82261 1.2865,3.00189 0,1.17934 -0.4288,2.17997 -1.2865,3.00188 -0.8219,0.82198 -1.8226,1.23295 -3.0019,1.23292 -1.1793,3e-5 -2.1799,-0.41094 -3.0019,-1.23292 m -2.305,4.1276 h 7.7192 l -3.8596,18.22574 c -0.143,0.60753 -0.2144,1.21506 -0.2144,1.82257 0,1.25079 0.7326,1.87619 2.1978,1.87618 1.0363,1e-5 2.0012,-0.4467 2.8947,-1.34013 0.8934,-0.89341 1.5366,-2.01911 1.9297,-3.37712 h 2.2515 c -2.3229,6.6113 -6.0753,9.91695 -11.2571,9.91695 -1.7154,0 -3.1091,-0.53605 -4.1812,-1.60816 -1.0364,-1.0721 -1.5546,-2.68025 -1.5546,-4.82446 0,-0.96488 0.143,-2.12632 0.4289,-3.48433 l 3.6451,-17.20724" />
    <path style="fill:#0071bc" inkscape:connector-curvature="0" id="path8337" d="m 1158.9548,257.66025 c 0,-1.82255 -0.6433,-2.73383 -1.9298,-2.73386 -1.7868,3e-5 -3.1806,1.64391 -4.1812,4.93167 l -3.6451,17.20725 h -7.7192 l 5.6822,-26.80256 h 7.7191 l -0.5896,2.78746 c 1.7511,-2.00123 3.8417,-3.00185 6.2718,-3.00188 1.8225,3e-5 3.2699,0.50034 4.342,1.50094 1.0721,1.00065 1.6081,2.41225 1.6081,4.23481 0,1.78685 -0.4288,4.37776 -1.2865,7.77274 -0.8577,3.35926 -1.2865,5.4856 -1.2865,6.37901 0,1.50095 0.7147,2.25142 2.1442,2.25141 0.8577,1e-5 1.4473,-0.1072 1.769,-0.32163 -0.2145,1.82258 -0.8756,3.19844 -1.9834,4.1276 -1.0721,0.92915 -2.4659,1.39373 -4.1812,1.39373 -1.7154,0 -3.0019,-0.57179 -3.8596,-1.71537 -0.8577,-1.14357 -1.2865,-2.46583 -1.2865,-3.96677 0,-1.50094 0.3931,-3.93104 1.1793,-7.2903 0.8219,-3.35924 1.2329,-5.61065 1.2329,-6.75425" />
   </g>
  </g>
  <text xml:space="preserve" style="font-style:normal;font-variant:normal;font-weight:bold;font-stretch:normal;font-size:7.51435995px;line-height:0%;font-family:'Bitstream Vera Sans';-inkscape-font-specification:'Bitstream Vera Sans Bold';text-align:start;letter-spacing:0px;word-spacing:0px;writing-mode:lr-tb;text-anchor:start;display:inline;opacity:0.81999966;fill:#0071bc;fill-opacity:1;stroke:none;stroke-width:0.62619662" x="102.8205" y="254.7451" id="text3025-3-8-1-6-9-6"><tspan sodipodi:role="line" id="tspan4191" x="102.8205" y="254.7451" style="font-size:8.7667532px;line-height:1.25;letter-spacing:0px;fill:#0071bc;stroke-width:0.62619662">26th, 27th and 28th of September</tspan></text>
  <text xml:space="preserve" style="font-style:normal;font-variant:normal;font-weight:bold;font-stretch:normal;font-size:19.42868042px;line-height:0%;font-family:'Bitstream Vera Sans';-inkscape-font-specification:'Bitstream Vera Sans Bold';text-align:start;letter-spacing:0px;word-spacing:0px;writing-mode:lr-tb;text-anchor:start;display:inline;opacity:0.81999966;fill:#0071bc;fill-opacity:1;stroke:none;stroke-width:1.6190567" x="149.48128" y="240.32454" id="text3025-3-8-1-6-9-6-7"><tspan sodipodi:role="line" id="tspan4191-5" x="149.48128" y="240.32454" style="font-size:22.66679382px;line-height:1.25;letter-spacing:0px;fill:#0071bc;stroke-width:1.6190567">XDC 2018</tspan></text>
  <path style="color:#000000;clip-rule:nonzero;display:inline;overflow:visible;visibility:visible;opacity:1;isolation:auto;mix-blend-mode:normal;color-interpolation:sRGB;color-interpolation-filters:linearRGB;solid-color:#000000;solid-opacity:1;vector-effect:none;fill:#0071bc;fill-opacity:1;fill-rule:nonzero;stroke:none;stroke-width:2.59331107;stroke-linecap:square;stroke-linejoin:miter;stroke-miterlimit:4;stroke-dasharray:none;stroke-dashoffset:0;stroke-opacity:1;marker:none;paint-order:markers fill stroke;color-rendering:auto;image-rendering:auto;shape-rendering:auto;text-rendering:auto;enable-background:accumulate" d="m 156.15563,144.36852 c 0,0 -20.32251,13.37194 -45.43326,29.33075 -25.110742,15.95881 -45.500762,28.4612 -45.500762,28.4612 0,0 19.126827,-14.37532 44.237562,-30.33414 25.11072,-15.95877 46.69646,-27.45781 46.69646,-27.45781 z" id="path2301" inkscape:connector-curvature="0" sodipodi:nodetypes="cscsc" />
  <path style="color:#000000;clip-rule:nonzero;display:inline;overflow:visible;visibility:visible;opacity:1;isolation:auto;mix-blend-mode:normal;color-interpolation:sRGB;color-interpolation-filters:linearRGB;solid-color:#000000;solid-opacity:1;vector-effect:none;fill:#0071bc;fill-opacity:1;fill-rule:nonzero;stroke:none;stroke-width:2.83988738;stroke-linecap:square;stroke-linejoin:miter;stroke-miterlimit:4;stroke-dasharray:none;stroke-dashoffset:0;stroke-opacity:1;marker:none;paint-order:markers fill stroke;color-rendering:auto;image-rendering:auto;shape-rendering:auto;text-rendering:auto;enable-background:accumulate" d="m 76.942346,219.96024 c 0,0 29.042684,-2.29939 64.611614,-4.64249 35.56894,-2.34308 64.19487,-3.84254 64.19487,-3.84254 0,0 -28.33914,3.74587 -63.90806,6.08896 -35.56889,2.34306 -64.898424,2.39607 -64.898424,2.39607 z" id="path2301-3" inkscape:connector-curvature="0" sodipodi:nodetypes="cscsc" />
  <path inkscape:connector-curvature="0" style="color:#000000;clip-rule:nonzero;display:inline;overflow:visible;visibility:visible;opacity:1;isolation:auto;mix-blend-mode:normal;color-interpolation:sRGB;color-interpolation-filters:linearRGB;solid-color:#000000;solid-opacity:1;vector-effect:none;fill:#0071bc;fill-opacity:1;fill-rule:nonzero;stroke:none;stroke-width:2.26015544;stroke-linecap:square;stroke-linejoin:miter;stroke-miterlimit:4;stroke-dasharray:none;stroke-dashoffset:0;stroke-opacity:1;marker:none;paint-order:markers fill stroke;color-rendering:auto;image-rendering:auto;shape-rendering:auto;text-rendering:auto;enable-background:accumulate" d="M 9.5085869,90.956401 V 293.0436 H 287.49141 V 90.956401 Z M 28.921865,99.410303 H 268.07857 c 6.07139,0 10.95894,4.887947 10.95894,10.959337 v 163.26069 c 0,6.07138 -4.88755,10.95937 -10.95894,10.95937 H 28.921865 c -6.071381,0 -10.959369,-4.88799 -10.959369,-10.95937 V 110.36964 c 0,-6.07139 4.887988,-10.959337 10.959369,-10.959337 z" id="rect2409" sodipodi:nodetypes="cccccsssssssss" />
 </g>
</svg>
