<?xml version="1.0" encoding="UTF-8" standalone="no"?>
<!-- Created with Inkscape (http://www.inkscape.org/) -->

<svg
   xmlns:dc="http://purl.org/dc/elements/1.1/"
   xmlns:cc="http://creativecommons.org/ns#"
   xmlns:rdf="http://www.w3.org/1999/02/22-rdf-syntax-ns#"
   xmlns:svg="http://www.w3.org/2000/svg"
   xmlns="http://www.w3.org/2000/svg"
   version="1.1"
   width="16"
   height="16"
   id="svg3791">
  <defs
     id="defs3793" />
  <metadata
     id="metadata3796">
    <rdf:RDF>
      <cc:Work
         rdf:about="">
        <dc:format>image/svg+xml</dc:format>
        <dc:type
           rdf:resource="http://purl.org/dc/dcmitype/StillImage" />
        <dc:title></dc:title>
        <cc:license
           rdf:resource="http://creativecommons.org/licenses/by-sa/3.0/" />
      </cc:Work>
      <cc:License
         rdf:about="http://creativecommons.org/licenses/by-sa/3.0/">
        <cc:permits
           rdf:resource="http://creativecommons.org/ns#Reproduction" />
        <cc:permits
           rdf:resource="http://creativecommons.org/ns#Distribution" />
        <cc:requires
           rdf:resource="http://creativecommons.org/ns#Notice" />
        <cc:requires
           rdf:resource="http://creativecommons.org/ns#Attribution" />
        <cc:permits
           rdf:resource="http://creativecommons.org/ns#DerivativeWorks" />
        <cc:requires
           rdf:resource="http://creativecommons.org/ns#ShareAlike" />
      </cc:License>
    </rdf:RDF>
  </metadata>
  <path
     d="M 7.9012098,0.00803401 C 7.6577628,0.05452708 7.4646293,0.29178003 7.4689945,0.53999131 l 0,0.63169929 C 4.1061871,1.4332221 1.4298227,4.1008816 1.1520016,7.4554362 l -0.53195731,0 c -0.0330346,-0.00319 -0.0667074,-0.00319 -0.099742,0 -0.27868924,0.025321 -0.52480673,0.3193765 -0.49870997,0.598452 0.02612974,0.2790754 0.31992247,0.4924648 0.59845196,0.4654626 l 0.53195732,0 c 0.2474218,3.3853872 2.932037,6.1202432 6.3169929,6.3834872 l 0,0.531958 C 7.4647389,15.715839 7.7203506,16 8.0009518,16 8.2815529,16 8.5368711,15.715839 8.5329091,15.434796 l 0,-0.531958 C 11.940209,14.649903 14.650591,11.894971 14.883149,8.4861035 l 0.565205,0 c 0.28058,0.00426 0.531957,-0.2508924 0.531957,-0.5319573 0,-0.281065 -0.251377,-0.5359364 -0.531957,-0.5319573 l -0.565205,0 C 14.58964,4.0750284 11.895872,1.4213382 8.5329091,1.1716906 l 0,-0.63169929 C 8.5382287,0.22489172 8.2102557,-0.05106645 7.9012098,0.00803401 z m -0.4654626,3.32473309 0,0.5319573 c -0.00426,0.2805798 0.2508923,0.5319573 0.5319573,0.5319573 0.281065,0 0.5359363,-0.2513775 0.5319573,-0.5319573 l 0,-0.5319573 C 10.732171,3.563628 12.473056,5.2664619 12.722073,7.4886835 l -0.565205,0 c -0.28058,-0.00398 -0.531957,0.2508924 -0.531957,0.5319573 0,0.281065 0.251377,0.536213 0.531957,0.5319573 l 0.565205,0 c -0.24169,2.2347999 -1.983249,3.9881179 -4.2224112,4.2224109 l 0,-0.565204 c 0.00398,-0.28058 -0.2508923,-0.531958 -0.5319573,-0.531958 -0.281065,0 -0.536213,0.251378 -0.5319573,0.531958 l 0,0.531957 C 5.2229714,12.480388 3.5070578,10.743121 3.2798308,8.5193508 l 0.5319573,0 c 0.2805798,0.00426 0.5319573,-0.2508923 0.5319573,-0.5319573 0,-0.281065 -0.2513775,-0.5359363 -0.5319573,-0.5319573 l -0.49871,0 C 3.5816933,5.2839885 5.2576207,3.5867129 7.4357472,3.3327671 z"
     id="path4640"
     style="font-size:medium;font-style:normal;font-variant:normal;font-weight:normal;font-stretch:normal;text-indent:0;text-align:start;text-decoration:none;line-height:normal;letter-spacing:normal;word-spacing:normal;text-transform:none;direction:ltr;block-progression:tb;writing-mode:lr-tb;text-anchor:start;baseline-shift:baseline;color:#000000;fill-opacity:1;stroke:none;stroke-width:2.15649271;marker:none;visibility:visible;display:inline;overflow:visible;enable-background:accumulate;font-family:Sans;-inkscape-font-specification:Sans" />
  <path
     d="m 9.0448691,7.9747861 a 1.0639146,1.0639146 0 0 1 -2.1278292,0 1.0639146,1.0639146 0 1 1 2.1278292,0 z"
     id="path5428"
     style="color:#000000;fill-opacity:1;stroke:none;stroke-width:2;marker:none;visibility:visible;display:inline;overflow:visible;enable-background:new" />
</svg>
