<?xml version="1.0" encoding="UTF-8" standalone="no"?>
<!-- Created with Inkscape (http://www.inkscape.org/) -->

<svg xmlns:dc="http://purl.org/dc/elements/1.1/" xmlns:cc="http://creativecommons.org/ns#" xmlns:rdf="http://www.w3.org/1999/02/22-rdf-syntax-ns#" xmlns:svg="http://www.w3.org/2000/svg" xmlns="http://www.w3.org/2000/svg" version="1.1" width="16" height="16" id="svg2983">
 <defs id="defs2985" />
 <metadata id="metadata2988">
  <rdf:RDF>
   <cc:Work rdf:about="">
    <dc:format>image/svg+xml</dc:format>
    <dc:type rdf:resource="http://purl.org/dc/dcmitype/StillImage" />
    <dc:title></dc:title>
    <cc:license rdf:resource="http://creativecommons.org/licenses/by-sa/3.0/" />
   </cc:Work>
   <cc:License rdf:about="http://creativecommons.org/licenses/by-sa/3.0/">
    <cc:permits rdf:resource="http://creativecommons.org/ns#Reproduction" />
    <cc:permits rdf:resource="http://creativecommons.org/ns#Distribution" />
    <cc:requires rdf:resource="http://creativecommons.org/ns#Notice" />
    <cc:requires rdf:resource="http://creativecommons.org/ns#Attribution" />
    <cc:permits rdf:resource="http://creativecommons.org/ns#DerivativeWorks" />
    <cc:requires rdf:resource="http://creativecommons.org/ns#ShareAlike" />
   </cc:License>
  </rdf:RDF>
 </metadata>
 <rect width="4" height="4" x="-1.6357421e-06" y="4" id="rect11849" style="fill-opacity:1;stroke:none" />
 <rect width="4.0000014" height="4" x="11.999998" y="4" id="rect11851" style="fill-opacity:1;stroke:none" />
 <rect width="12" height="2" x="1.9999983" y="5" id="rect11853" style="fill-opacity:1;stroke:none" />
 <path d="m -70,206.5 a 1.5,1.5 0 1 1 -3,0 1.5,1.5 0 1 1 3,0 z" transform="matrix(1.3333333,0,0,1.3333312,103.33333,-269.33288)" id="path11855" style="fill-opacity:1;stroke:none" />
 <path d="M 15,14 C 15,10.68629 11.86599,8 8,8 4.13401,8 1,10.68629 1,14 l 2.015625,0 C 3.303476,11.74609 5.423246,10 8,10 c 2.576754,0 4.696524,1.74609 4.984375,4 z" id="path11857" style="fill-opacity:1;stroke:none" />
</svg>
