<?xml version="1.0" encoding="UTF-8" standalone="no"?>
<!-- Created with Inkscape (http://www.inkscape.org/) -->

<svg
   xmlns:dc="http://purl.org/dc/elements/1.1/"
   xmlns:cc="http://creativecommons.org/ns#"
   xmlns:rdf="http://www.w3.org/1999/02/22-rdf-syntax-ns#"
   xmlns:svg="http://www.w3.org/2000/svg"
   xmlns="http://www.w3.org/2000/svg"
   xmlns:xlink="http://www.w3.org/1999/xlink"
   version="1.1"
   width="15"
   height="15"
   id="svg3051">
  <defs
     id="defs3053">
    <linearGradient
       x1="7.0862341"
       y1="-0.4476825"
       x2="7.0862341"
       y2="9.954217"
       id="linearGradient4994"
       xlink:href="#linearGradient6050-1-7-6-4-7-3-6-2-4-5"
       gradientUnits="userSpaceOnUse" />
    <linearGradient
       id="linearGradient6050-1-7-6-4-7-3-6-2-4-5">
      <stop
         id="stop6052-7-5-7-8-3-0-8-8-5-1"
         style="stop-color:#4f9a06;stop-opacity:1"
         offset="0" />
      <stop
         id="stop6054-0-7-8-9-2-5-1-9-7-2"
         style="stop-color:#8ae234;stop-opacity:1"
         offset="1" />
    </linearGradient>
  </defs>
  <metadata
     id="metadata3056">
    <rdf:RDF>
      <cc:Work
         rdf:about="">
        <dc:format>image/svg+xml</dc:format>
        <dc:type
           rdf:resource="http://purl.org/dc/dcmitype/StillImage" />
        <dc:title></dc:title>
        <cc:license
           rdf:resource="http://creativecommons.org/licenses/by-sa/3.0/" />
      </cc:Work>
      <cc:License
         rdf:about="http://creativecommons.org/licenses/by-sa/3.0/">
        <cc:permits
           rdf:resource="http://creativecommons.org/ns#Reproduction" />
        <cc:permits
           rdf:resource="http://creativecommons.org/ns#Distribution" />
        <cc:requires
           rdf:resource="http://creativecommons.org/ns#Notice" />
        <cc:requires
           rdf:resource="http://creativecommons.org/ns#Attribution" />
        <cc:permits
           rdf:resource="http://creativecommons.org/ns#DerivativeWorks" />
        <cc:requires
           rdf:resource="http://creativecommons.org/ns#ShareAlike" />
      </cc:License>
    </rdf:RDF>
  </metadata>
  <path
     d="m 7.5,0.50005 c -0.22065,0 -0.44081,0.0113 -0.65625,0.0312 L 6.4375,2.625 C 6.10304,2.6983 5.77445,2.80089 5.46875,2.9375 L 3.9375,1.46875 C 3.54887,1.69886 3.21055,1.98283 2.875,2.28125 L 3.78125,4.1875 C 3.55883,4.43649 3.357,4.71 3.1875,5 L 1.09375,4.71875 C 0.91603,5.12752 0.78503,5.55512 0.6875,6 l 1.84375,1 c -0.0171,0.16809 -0.0312,0.3274 -0.0312,0.5 0,0.1726 0.0142,0.33191 0.0312,0.5 L 0.6875,9 C 0.785,9.44488 0.91603,9.87248 1.09375,10.28125 L 3.1875,10 c 0.1695,0.29 0.37133,0.56351 0.59375,0.8125 L 2.875,12.71875 c 0.33555,0.29842 0.67387,0.58239 1.0625,0.8125 L 5.46875,12.0625 c 0.3057,0.13661 0.63429,0.23916 0.96875,0.3125 l 0.40625,2.09375 c 0.21544,0.02 0.4356,0.0312 0.65625,0.0312 0.22065,0 0.44081,-0.0113 0.65625,-0.0312 L 8.5625,12.375 c 0.33446,-0.0733 0.66305,-0.17589 0.96875,-0.3125 l 1.53125,1.46875 c 0.38863,-0.23011 0.72695,-0.51408 1.0625,-0.8125 L 11.21875,10.8125 C 11.44117,10.56351 11.643,10.29 11.8125,10 l 2.09375,0.28125 C 14.08397,9.87248 14.21497,9.44488 14.3125,9 L 12.46875,8 c 0.0171,-0.16809 0.0312,-0.3274 0.0312,-0.5 0,-0.1726 -0.0142,-0.33191 -0.0312,-0.5 L 14.3125,6 C 14.215,5.55512 14.08397,5.12752 13.90625,4.71875 L 11.8125,5 C 11.643,4.71 11.44117,4.43649 11.21875,4.1875 L 12.125,2.28125 C 11.78945,1.98283 11.45113,1.69886 11.0625,1.46875 L 9.53125,2.9375 C 9.22555,2.80089 8.89696,2.69834 8.5625,2.625 L 8.15625,0.53125 C 7.94081,0.51125 7.72065,0.50005 7.5,0.50005 z m 0,4 c 1.65685,0 3,1.34315 3,3 0,1.65685 -1.34315,3 -3,3 -1.65685,0 -3,-1.34315 -3,-3 0,-1.65685 1.34315,-3 3,-3 z"
     id="path35543-6-4"
     style="color:#000000;fill:#000000;fill-opacity:1;fill-rule:nonzero;stroke:none;marker:none;visibility:visible;display:inline;overflow:visible;enable-background:accumulate" />
</svg>
