<?xml version="1.0" encoding="UTF-8" standalone="no"?>
<!-- Created with Inkscape (http://www.inkscape.org/) -->

<svg
   xmlns:dc="http://purl.org/dc/elements/1.1/"
   xmlns:cc="http://creativecommons.org/ns#"
   xmlns:rdf="http://www.w3.org/1999/02/22-rdf-syntax-ns#"
   xmlns:svg="http://www.w3.org/2000/svg"
   xmlns="http://www.w3.org/2000/svg"
   version="1.1"
   width="10"
   height="10"
   id="svg3029">
  <defs
     id="defs3031" />
  <metadata
     id="metadata3034">
    <rdf:RDF>
      <cc:Work
         rdf:about="">
        <dc:format>image/svg+xml</dc:format>
        <dc:type
           rdf:resource="http://purl.org/dc/dcmitype/StillImage" />
        <dc:title></dc:title>
        <cc:license
           rdf:resource="http://creativecommons.org/licenses/by-sa/3.0/" />
      </cc:Work>
      <cc:License
         rdf:about="http://creativecommons.org/licenses/by-sa/3.0/">
        <cc:permits
           rdf:resource="http://creativecommons.org/ns#Reproduction" />
        <cc:permits
           rdf:resource="http://creativecommons.org/ns#Distribution" />
        <cc:requires
           rdf:resource="http://creativecommons.org/ns#Notice" />
        <cc:requires
           rdf:resource="http://creativecommons.org/ns#Attribution" />
        <cc:permits
           rdf:resource="http://creativecommons.org/ns#DerivativeWorks" />
        <cc:requires
           rdf:resource="http://creativecommons.org/ns#ShareAlike" />
      </cc:License>
    </rdf:RDF>
  </metadata>
  <path
     d="M 1,1 1,9 1.484375,9 C 1.25974,8.73746 1.288935,8.50408 1.499975,8.234375 L 2.7723,6.973925 C 2.60255,6.68133 2.499975,6.345435 2.499975,5.984375 c 0,-1.10679 0.90039,-2.015625 2,-2.015625 1.099615,0 2,0.908835 2,2.015625 C 6.499975,7.091165 5.59959,8 4.499975,8 4.095375,8 3.722065,7.88222 3.406225,7.671875 L 2.015625,9 l 6,0 C 7.952645,8.93702 7.90625,8.846105 7.90625,8.75 7.90625,8.55779 8.05779,8.40625 8.25,8.40625 8.44221,8.40625 8.609375,8.55779 8.609375,8.75 8.609375,8.846105 8.562975,8.93702 8.5,9 L 9,9 9,1 8.5,1 C 8.43702,1.06298 8.346105,1.109375 8.25,1.109375 8.153895,1.109375 8.078605,1.062975 8.015625,1 L 1.984375,1 C 1.921395,1.062975 1.846105,1.109375 1.75,1.109375 1.653895,1.109375 1.56298,1.062975 1.5,1 z m 0.75,0.40625 c 0.19221,0 0.34375,0.15154 0.34375,0.34375 0,0.19221 -0.15154,0.359375 -0.34375,0.359375 C 1.55779,2.109375 1.390625,1.94221 1.390625,1.75 1.390625,1.55779 1.55779,1.40625 1.75,1.40625 z m 6.5,0 c 0.19221,0 0.359375,0.15154 0.359375,0.34375 C 8.609375,1.94221 8.44221,2.109375 8.25,2.109375 8.05779,2.109375 7.90625,1.94221 7.90625,1.75 7.90625,1.55779 8.05779,1.40625 8.25,1.40625 z m -6.5,1 c 0.19221,0 0.34375,0.15154 0.34375,0.34375 0,0.19221 -0.15154,0.359375 -0.34375,0.359375 C 1.55779,3.109375 1.390625,2.94221 1.390625,2.75 1.390625,2.55779 1.55779,2.40625 1.75,2.40625 z m 6.5,0 c 0.19221,0 0.359375,0.15154 0.359375,0.34375 C 8.609375,2.94221 8.44221,3.109375 8.25,3.109375 8.05779,3.109375 7.90625,2.94221 7.90625,2.75 7.90625,2.55779 8.05779,2.40625 8.25,2.40625 z m -6.5,1 c 0.19221,0 0.34375,0.15154 0.34375,0.34375 0,0.19221 -0.15154,0.359375 -0.34375,0.359375 C 1.55779,4.109375 1.390625,3.94221 1.390625,3.75 1.390625,3.55779 1.55779,3.40625 1.75,3.40625 z m 6.5,0 c 0.19221,0 0.359375,0.15154 0.359375,0.34375 C 8.609375,3.94221 8.44221,4.109375 8.25,4.109375 8.05779,4.109375 7.90625,3.94221 7.90625,3.75 7.90625,3.55779 8.05779,3.40625 8.25,3.40625 z m -6.5,1 c 0.19221,0 0.34375,0.15154 0.34375,0.34375 0,0.19221 -0.15154,0.359375 -0.34375,0.359375 C 1.55779,5.109375 1.390625,4.94221 1.390625,4.75 1.390625,4.55779 1.55779,4.40625 1.75,4.40625 z m 6.5,0 c 0.19221,0 0.359375,0.15154 0.359375,0.34375 C 8.609375,4.94221 8.44221,5.109375 8.25,5.109375 8.05779,5.109375 7.90625,4.94221 7.90625,4.75 7.90625,4.55779 8.05779,4.40625 8.25,4.40625 z M 4.520105,5.00781 c -0.5561,0 -0.995525,0.448085 -0.995525,1.007815 0,0.55973 0.439425,1.00781 0.995525,1.00781 0.5561,0 0.99552,-0.44808 0.99552,-1.00781 0,-0.55973 -0.43942,-1.007815 -0.99552,-1.007815 z M 1.75,5.40625 c 0.19221,0 0.34375,0.15154 0.34375,0.34375 0,0.19221 -0.15154,0.359375 -0.34375,0.359375 C 1.55779,6.109375 1.390625,5.94221 1.390625,5.75 1.390625,5.55779 1.55779,5.40625 1.75,5.40625 z m 6.5,0 c 0.19221,0 0.359375,0.15154 0.359375,0.34375 C 8.609375,5.94221 8.44221,6.109375 8.25,6.109375 8.05779,6.109375 7.90625,5.94221 7.90625,5.75 7.90625,5.55779 8.05779,5.40625 8.25,5.40625 z m -6.5,1 c 0.19221,0 0.34375,0.15154 0.34375,0.34375 0,0.19221 -0.15154,0.359375 -0.34375,0.359375 C 1.55779,7.109375 1.390625,6.94221 1.390625,6.75 1.390625,6.55779 1.55779,6.40625 1.75,6.40625 z m 6.5,0 c 0.19221,0 0.359375,0.15154 0.359375,0.34375 C 8.609375,6.94221 8.44221,7.109375 8.25,7.109375 8.05779,7.109375 7.90625,6.94221 7.90625,6.75 7.90625,6.55779 8.05779,6.40625 8.25,6.40625 z m 0,1 c 0.19221,0 0.359375,0.15154 0.359375,0.34375 C 8.609375,7.94221 8.44221,8.109375 8.25,8.109375 8.05779,8.109375 7.90625,7.94221 7.90625,7.75 7.90625,7.55779 8.05779,7.40625 8.25,7.40625 z"
     id="path10349"
     style="fill:#bebebe;fill-opacity:1;stroke:none;display:inline" />
</svg>
