<?xml version="1.0" encoding="UTF-8" standalone="no"?>
<!-- Created with Inkscape (http://www.inkscape.org/) -->

<svg
   xmlns:dc="http://purl.org/dc/elements/1.1/"
   xmlns:cc="http://creativecommons.org/ns#"
   xmlns:rdf="http://www.w3.org/1999/02/22-rdf-syntax-ns#"
   xmlns:svg="http://www.w3.org/2000/svg"
   xmlns="http://www.w3.org/2000/svg"
   version="1.1"
   width="16"
   height="16"
   id="svg4953">
  <defs
     id="defs4955" />
  <metadata
     id="metadata4958">
    <rdf:RDF>
      <cc:Work
         rdf:about="">
        <dc:format>image/svg+xml</dc:format>
        <dc:type
           rdf:resource="http://purl.org/dc/dcmitype/StillImage" />
        <cc:license
           rdf:resource="http://creativecommons.org/licenses/by-sa/3.0/" />
        <dc:title></dc:title>
      </cc:Work>
      <cc:License
         rdf:about="http://creativecommons.org/licenses/by-sa/3.0/">
        <cc:permits
           rdf:resource="http://creativecommons.org/ns#Reproduction" />
        <cc:permits
           rdf:resource="http://creativecommons.org/ns#Distribution" />
        <cc:requires
           rdf:resource="http://creativecommons.org/ns#Notice" />
        <cc:requires
           rdf:resource="http://creativecommons.org/ns#Attribution" />
        <cc:permits
           rdf:resource="http://creativecommons.org/ns#DerivativeWorks" />
        <cc:requires
           rdf:resource="http://creativecommons.org/ns#ShareAlike" />
      </cc:License>
    </rdf:RDF>
  </metadata>
  <path
     d="m 2,2 0,12 0.7265625,0 c -0.3369525,-0.39381 -0.29316,-0.74388 0.0234,-1.148437 L 4.65845,10.960888 C 4.403825,10.521995 4.2499625,10.018152 4.2499625,9.4765625 c 0,-1.660185 1.350585,-3.0234375 3,-3.0234375 1.6494225,0 3.0000005,1.3632525 3.0000005,3.0234375 0,1.6601855 -1.350578,3.0234375 -3.0000005,3.0234375 -0.6069,0 -1.166865,-0.17667 -1.640625,-0.492187 L 3.5234375,14 12.523438,14 c -0.09447,-0.09447 -0.164063,-0.230843 -0.164063,-0.375 0,-0.288315 0.22731,-0.515625 0.515625,-0.515625 0.288315,0 0.539063,0.22731 0.539063,0.515625 0,0.144157 -0.0696,0.28053 -0.164063,0.375 L 14,14 14,2 13.25,2 c -0.09447,0.09447 -0.230843,0.1640625 -0.375,0.1640625 -0.144157,0 -0.257093,-0.0696 -0.351562,-0.1640625 L 3.4765625,2 C 3.3820925,2.0944625 3.2691575,2.1640625 3.125,2.1640625 2.9808425,2.1640625 2.84447,2.0944625 2.75,2 z m 1.125,0.609375 c 0.288315,0 0.515625,0.22731 0.515625,0.515625 0,0.288315 -0.22731,0.5390625 -0.515625,0.5390625 -0.288315,0 -0.5390625,-0.2507475 -0.5390625,-0.5390625 0,-0.288315 0.2507475,-0.515625 0.5390625,-0.515625 z m 9.75,0 c 0.288315,0 0.539063,0.22731 0.539063,0.515625 0,0.288315 -0.250748,0.5390625 -0.539063,0.5390625 -0.288315,0 -0.515625,-0.2507475 -0.515625,-0.5390625 0,-0.288315 0.22731,-0.515625 0.515625,-0.515625 z m -9.75,1.5 c 0.288315,0 0.515625,0.22731 0.515625,0.515625 0,0.288315 -0.22731,0.5390625 -0.515625,0.5390625 -0.288315,0 -0.5390625,-0.2507475 -0.5390625,-0.5390625 0,-0.288315 0.2507475,-0.515625 0.5390625,-0.515625 z m 9.75,0 c 0.288315,0 0.539063,0.22731 0.539063,0.515625 0,0.288315 -0.250748,0.5390625 -0.539063,0.5390625 -0.288315,0 -0.515625,-0.2507475 -0.515625,-0.5390625 0,-0.288315 0.22731,-0.515625 0.515625,-0.515625 z m -9.75,1.5 c 0.288315,0 0.515625,0.22731 0.515625,0.515625 0,0.288315 -0.22731,0.5390625 -0.515625,0.5390625 -0.288315,0 -0.5390625,-0.2507475 -0.5390625,-0.5390625 0,-0.288315 0.2507475,-0.515625 0.5390625,-0.515625 z m 9.75,0 c 0.288315,0 0.539063,0.22731 0.539063,0.515625 0,0.288315 -0.250748,0.5390625 -0.539063,0.5390625 -0.288315,0 -0.515625,-0.2507475 -0.515625,-0.5390625 0,-0.288315 0.22731,-0.515625 0.515625,-0.515625 z m -9.75,1.5 c 0.288315,0 0.515625,0.22731 0.515625,0.515625 0,0.288315 -0.22731,0.5390625 -0.515625,0.5390625 -0.288315,0 -0.5390625,-0.2507475 -0.5390625,-0.5390625 0,-0.288315 0.2507475,-0.515625 0.5390625,-0.515625 z m 9.75,0 c 0.288315,0 0.539063,0.22731 0.539063,0.515625 0,0.288315 -0.250748,0.5390625 -0.539063,0.5390625 -0.288315,0 -0.515625,-0.2507475 -0.515625,-0.5390625 0,-0.288315 0.22731,-0.515625 0.515625,-0.515625 z m -5.5948425,0.90234 c -0.83415,0 -1.4932875,0.6721275 -1.4932875,1.5117225 0,0.8395945 0.6591375,1.5117155 1.4932875,1.5117155 0.83415,0 1.49328,-0.672121 1.49328,-1.5117155 0,-0.839595 -0.65913,-1.5117225 -1.49328,-1.5117225 z M 3.125,8.609375 c 0.288315,0 0.515625,0.22731 0.515625,0.515625 0,0.288315 -0.22731,0.5390625 -0.515625,0.5390625 -0.288315,0 -0.5390625,-0.2507475 -0.5390625,-0.5390625 0,-0.288315 0.2507475,-0.515625 0.5390625,-0.515625 z m 9.75,0 c 0.288315,0 0.539063,0.22731 0.539063,0.515625 0,0.288315 -0.250748,0.5390625 -0.539063,0.5390625 -0.288315,0 -0.515625,-0.2507475 -0.515625,-0.5390625 0,-0.288315 0.22731,-0.515625 0.515625,-0.515625 z m -9.75,1.5 c 0.288315,0 0.515625,0.22731 0.515625,0.515625 0,0.288315 -0.22731,0.539063 -0.515625,0.539063 -0.288315,0 -0.5390625,-0.250748 -0.5390625,-0.539063 0,-0.288315 0.2507475,-0.515625 0.5390625,-0.515625 z m 9.75,0 c 0.288315,0 0.539063,0.22731 0.539063,0.515625 0,0.288315 -0.250748,0.539063 -0.539063,0.539063 -0.288315,0 -0.515625,-0.250748 -0.515625,-0.539063 0,-0.288315 0.22731,-0.515625 0.515625,-0.515625 z m 0,1.5 c 0.288315,0 0.539063,0.22731 0.539063,0.515625 0,0.288315 -0.250748,0.539063 -0.539063,0.539063 -0.288315,0 -0.515625,-0.250748 -0.515625,-0.539063 0,-0.288315 0.22731,-0.515625 0.515625,-0.515625 z"
     id="path10349"
     style="fill-opacity:1;stroke:none;display:inline" />
</svg>
