<?xml version="1.0" encoding="UTF-8" standalone="no"?>
<!-- Created with Inkscape (http://www.inkscape.org/) -->

<svg xmlns:dc="http://purl.org/dc/elements/1.1/" xmlns:cc="http://creativecommons.org/ns#" xmlns:rdf="http://www.w3.org/1999/02/22-rdf-syntax-ns#" xmlns:svg="http://www.w3.org/2000/svg" xmlns="http://www.w3.org/2000/svg" version="1.1" width="100%" height="100%" viewBox="0 0 16 16" id="svg2">
 <metadata id="metadata10">
  <rdf:RDF>
   <cc:Work rdf:about="">
    <dc:format>image/svg+xml</dc:format>
    <dc:type rdf:resource="http://purl.org/dc/dcmitype/StillImage" />
    <dc:title></dc:title>
   </cc:Work>
  </rdf:RDF>
 </metadata>
 <defs id="defs8" />
 <g transform="matrix(1.0385402,0,0,1.0385402,-8.7841255,18.561421)" id="g3777">
  <path d="m 12.864397,-11.169487 c -0.30943,4e-5 -0.61463,0.0905 -0.8125,0.28125 l -3.59375,3.71875 3.65625,3.71875 c 0.19771,0.19101 0.44055,0.28124 0.75,0.28125 l 1,0 0,-1 c -5e-5,-0.25688 -0.12958,-0.52871 -0.3125,-0.71875 l -1.28125,-1.28125 4.59374,0 c 0.52831,0.007 1,-0.47164 1,-1 0,-0.52836 -0.47169,-1.00747 -1,-1 l -4.62499,0 1.21875,-1.28125 c 0.18273,-0.19024 0.40624,-0.46185 0.40625,-0.71875 l 0,-1 z" id="path16181" style="font-size:medium;font-style:normal;font-variant:normal;font-weight:normal;font-stretch:normal;text-indent:0;text-align:start;text-decoration:none;line-height:normal;letter-spacing:normal;word-spacing:normal;text-transform:none;direction:ltr;block-progression:tb;writing-mode:lr-tb;text-anchor:start;baseline-shift:baseline;color:#000000;fill:#000000;fill-opacity:1;stroke:none;stroke-width:1.99999976;marker:none;visibility:visible;display:inline;overflow:visible;enable-background:accumulate;font-family:Sans;-inkscape-font-specification:Sans" />
  <path d="m 19.458137,-9.169487 c 0.30943,-4e-5 0.61463,-0.0905 0.8125,-0.28125 l 3.59375,-3.71875 -3.65625,-3.71875 c -0.19771,-0.19101 -0.44055,-0.28124 -0.75,-0.28125 l -1,0 0,1 c 5e-5,0.25688 0.12958,0.52871 0.3125,0.71875 l 1.28125,1.28125 -5.1875,0 c -0.52831,-0.007 -1,0.47164 -1,1 0,0.52836 0.47169,1.00747 1,1 l 5.21875,0 -1.21875,1.28125 c -0.18273,0.19024 -0.40624,0.46185 -0.40625,0.71875 l 0,1 z" id="path16183" style="font-size:medium;font-style:normal;font-variant:normal;font-weight:normal;font-stretch:normal;text-indent:0;text-align:start;text-decoration:none;line-height:normal;letter-spacing:normal;word-spacing:normal;text-transform:none;direction:ltr;block-progression:tb;writing-mode:lr-tb;text-anchor:start;baseline-shift:baseline;color:#000000;fill:#000000;fill-opacity:1;stroke:none;stroke-width:2;marker:none;visibility:visible;display:inline;overflow:visible;enable-background:accumulate;font-family:Sans;-inkscape-font-specification:Sans" />
 </g>
</svg>
