<?xml version="1.0" encoding="UTF-8" standalone="no"?>
<!-- Created with Inkscape (http://www.inkscape.org/) -->

<svg xmlns:dc="http://purl.org/dc/elements/1.1/" xmlns:cc="http://creativecommons.org/ns#" xmlns:rdf="http://www.w3.org/1999/02/22-rdf-syntax-ns#" xmlns:svg="http://www.w3.org/2000/svg" xmlns="http://www.w3.org/2000/svg" version="1.1" width="16" height="16" id="svg2983">
 <defs id="defs2985" />
 <metadata id="metadata2988">
  <rdf:RDF>
   <cc:Work rdf:about="">
    <dc:format>image/svg+xml</dc:format>
    <dc:type rdf:resource="http://purl.org/dc/dcmitype/StillImage" />
    <dc:title></dc:title>
    <cc:license rdf:resource="http://creativecommons.org/licenses/by-sa/3.0/" />
   </cc:Work>
   <cc:License rdf:about="http://creativecommons.org/licenses/by-sa/3.0/">
    <cc:permits rdf:resource="http://creativecommons.org/ns#Reproduction" />
    <cc:permits rdf:resource="http://creativecommons.org/ns#Distribution" />
    <cc:requires rdf:resource="http://creativecommons.org/ns#Notice" />
    <cc:requires rdf:resource="http://creativecommons.org/ns#Attribution" />
    <cc:permits rdf:resource="http://creativecommons.org/ns#DerivativeWorks" />
    <cc:requires rdf:resource="http://creativecommons.org/ns#ShareAlike" />
   </cc:License>
  </rdf:RDF>
 </metadata>
 <path d="m 3.9999,3 0,2 6,0 c 0.42816,0 1,0.61414 1,1 l 2,0 c 0,-1.63434 -1.3198,-3 -3,-3 l -6,0 z m -1,7 c 0.006,0.72062 0.26893,1.45271 0.78125,2.03125 C 4.29347,12.60979 5.09162,13 5.9999,13 l 6,0 1,0 0,-1 0,-2 -2,0 0,1 -5,0 C 5.60203,11 5.43299,10.89021 5.28115,10.71875 5.12931,10.54729 5.00238,10.27938 4.9999,10 l -2,0 z" id="path11643-3-2-6" style="font-size:medium;font-style:normal;font-variant:normal;font-weight:normal;font-stretch:normal;text-indent:0;text-align:start;text-decoration:none;line-height:normal;letter-spacing:normal;word-spacing:normal;text-transform:none;direction:ltr;block-progression:tb;writing-mode:lr-tb;text-anchor:start;color:#000000;fill-opacity:1;stroke:none;stroke-width:2;marker:none;visibility:visible;display:inline;overflow:visible;enable-background:accumulate;font-family:Sans;-inkscape-font-specification:Sans" />
 <path d="M 1,7 1,9 15,9 15,7 1,7 z" id="path5100-8" style="font-size:medium;font-style:normal;font-variant:normal;font-weight:normal;font-stretch:normal;text-indent:0;text-align:start;text-decoration:none;line-height:normal;letter-spacing:normal;word-spacing:normal;text-transform:none;direction:ltr;block-progression:tb;writing-mode:lr-tb;text-anchor:start;baseline-shift:baseline;color:#000000;fill-opacity:1;fill-rule:nonzero;stroke:none;marker:none;visibility:visible;display:inline;overflow:visible;enable-background:accumulate;font-family:Sans;-inkscape-font-specification:Sans" />
</svg>
