<?xml version="1.0" encoding="UTF-8" standalone="no"?>
<!-- Created with Inkscape (http://www.inkscape.org/) -->

<svg xmlns:dc="http://purl.org/dc/elements/1.1/" xmlns:cc="http://creativecommons.org/ns#" xmlns:rdf="http://www.w3.org/1999/02/22-rdf-syntax-ns#" xmlns:svg="http://www.w3.org/2000/svg" xmlns="http://www.w3.org/2000/svg" version="1.1" width="16" height="16" id="svg2983">
 <defs id="defs2985" />
 <metadata id="metadata2988">
  <rdf:RDF>
   <cc:Work rdf:about="">
    <dc:format>image/svg+xml</dc:format>
    <dc:type rdf:resource="http://purl.org/dc/dcmitype/StillImage" />
    <dc:title></dc:title>
    <cc:license rdf:resource="http://creativecommons.org/licenses/by-sa/3.0/" />
   </cc:Work>
   <cc:License rdf:about="http://creativecommons.org/licenses/by-sa/3.0/">
    <cc:permits rdf:resource="http://creativecommons.org/ns#Reproduction" />
    <cc:permits rdf:resource="http://creativecommons.org/ns#Distribution" />
    <cc:requires rdf:resource="http://creativecommons.org/ns#Notice" />
    <cc:requires rdf:resource="http://creativecommons.org/ns#Attribution" />
    <cc:permits rdf:resource="http://creativecommons.org/ns#DerivativeWorks" />
    <cc:requires rdf:resource="http://creativecommons.org/ns#ShareAlike" />
   </cc:License>
  </rdf:RDF>
 </metadata>
 <path d="m 4.5121208,6.2993079 0,1.550173 1.4775087,0 c -0.042771,0 0.072664,0.1083473 0.072664,0.048443 l 0,0.7266436 -0.7750865,0 c -1.3299557,0 -2.3546111,0.8844592 -2.3737024,1.9377165 -0.00955,0.526628 0.2476434,1.048871 0.6782007,1.404844 C 4.0222629,12.323101 4.6067528,12.5 5.2872073,12.5 l 1.550173,0 0.7750866,0 0,-0.775087 0,-3.8269892 c 0,-0.9077716 -0.6951813,-1.5986159 -1.6228374,-1.5986159 l -1.4775087,0 z m 0.7750865,3.8754321 0.7750865,0 0,0.775087 -0.7750865,0 c -0.4025855,0 -0.6046553,-0.112941 -0.7024221,-0.193772 -0.097767,-0.08083 -0.1221183,-0.113773 -0.1211073,-0.16955 0.00202,-0.111554 0.071858,-0.411765 0.8235294,-0.411765 z" id="path28099-5-5" style="font-size:medium;font-style:normal;font-variant:normal;font-weight:normal;font-stretch:normal;text-indent:0;text-align:start;text-decoration:none;line-height:normal;letter-spacing:normal;word-spacing:normal;text-transform:none;direction:ltr;block-progression:tb;writing-mode:lr-tb;text-anchor:start;baseline-shift:baseline;color:#000000;fill-opacity:1;stroke:none;stroke-width:2;marker:none;visibility:visible;display:inline;overflow:visible;enable-background:accumulate;font-family:Sans;-inkscape-font-specification:Sans" />
 <path d="m 8.3875534,5.4999999 0,6.2249131 0,0.775087 0.7750865,0 1.5501731,0 c 0.72746,0 1.381588,-0.272096 1.792387,-0.726644 0.4108,-0.454547 0.588976,-1.057163 0.581315,-1.622837 -0.0077,-0.5656736 -0.221412,-1.1270322 -0.629757,-1.5743945 -0.408345,-0.4473622 -1.030055,-0.750865 -1.743945,-0.750865 l -0.7750866,0 0,-2.3252596 -1.550173,0 z m 1.550173,3.8754326 0.7750866,0 c 0.326923,0 0.480279,0.1049891 0.605536,0.2422145 0.125257,0.1372254 0.215098,0.3433168 0.217993,0.557093 0.0029,0.213777 -0.07625,0.427054 -0.193771,0.557094 -0.117524,0.13004 -0.274178,0.217993 -0.629758,0.217993 l -0.7750866,0 0,-1.5743945 z" id="path28101-6" style="font-size:medium;font-style:normal;font-variant:normal;font-weight:normal;font-stretch:normal;text-indent:0;text-align:start;text-decoration:none;line-height:normal;letter-spacing:normal;word-spacing:normal;text-transform:none;direction:ltr;block-progression:tb;writing-mode:lr-tb;text-anchor:start;baseline-shift:baseline;color:#000000;fill-opacity:1;stroke:none;stroke-width:2;marker:none;visibility:visible;display:inline;overflow:visible;enable-background:accumulate;font-family:Sans;-inkscape-font-specification:Sans" />
</svg>
