<?xml version="1.0" encoding="UTF-8" standalone="no"?>
<!-- Created with Inkscape (http://www.inkscape.org/) -->

<svg xmlns:dc="http://purl.org/dc/elements/1.1/" xmlns:cc="http://creativecommons.org/ns#" xmlns:rdf="http://www.w3.org/1999/02/22-rdf-syntax-ns#" xmlns:svg="http://www.w3.org/2000/svg" xmlns="http://www.w3.org/2000/svg" version="1.1" width="16" height="16" id="svg2983">
 <defs id="defs2985">
  <linearGradient id="linearGradient19282" gradientTransform="matrix(-2.7365795,0.40810354,-0.18908311,-1.4468561,239.54008,-1703.6896)">
   <stop id="stop19284" style="stop-color:#666666;stop-opacity:1" offset="0" />
  </linearGradient>
 </defs>
 <metadata id="metadata2988">
  <rdf:RDF>
   <cc:Work rdf:about="">
    <dc:format>image/svg+xml</dc:format>
    <dc:type rdf:resource="http://purl.org/dc/dcmitype/StillImage" />
    <dc:title></dc:title>
    <cc:license rdf:resource="http://creativecommons.org/licenses/by-sa/3.0/" />
   </cc:Work>
   <cc:License rdf:about="http://creativecommons.org/licenses/by-sa/3.0/">
    <cc:permits rdf:resource="http://creativecommons.org/ns#Reproduction" />
    <cc:permits rdf:resource="http://creativecommons.org/ns#Distribution" />
    <cc:requires rdf:resource="http://creativecommons.org/ns#Notice" />
    <cc:requires rdf:resource="http://creativecommons.org/ns#Attribution" />
    <cc:permits rdf:resource="http://creativecommons.org/ns#DerivativeWorks" />
    <cc:requires rdf:resource="http://creativecommons.org/ns#ShareAlike" />
   </cc:License>
  </rdf:RDF>
 </metadata>
 <rect width="2" height="6.0000029" rx="1" ry="0" x="-9" y="-6.0000014" transform="matrix(0,-1,-1,0,0,0)" id="rect6775" style="fill-opacity:1;stroke:none" />
 <rect width="2" height="5.9999986" rx="0.9375" ry="0" x="-9" y="-16.000002" transform="matrix(0,-1,-1,0,0,0)" id="rect6777" style="fill-opacity:1;stroke:none" />
 <path d="M 4,3 C 2.892,3 2,3.892 2,5 l 0,6 c 0,1.108 0.892,2 2,2 l 8,0 c 1.108,0 2,-0.892 2,-2 L 14,5 C 14,3.892 13.108,3 12,3 L 4,3 z m 1,2 6,0 c 0.554,0 1,0.446 1,1 l 0,4 c 0,0.554 -0.446,1 -1,1 L 5,11 C 4.446,11 4,10.554 4,10 L 4,6 C 4,5.446 4.446,5 5,5 z" id="rect6791" style="fill-opacity:1;stroke:none" />
</svg>
