<?xml version="1.0" encoding="UTF-8" standalone="no"?>
<!-- Created with Inkscape (http://www.inkscape.org/) -->

<svg
   xmlns:dc="http://purl.org/dc/elements/1.1/"
   xmlns:cc="http://creativecommons.org/ns#"
   xmlns:rdf="http://www.w3.org/1999/02/22-rdf-syntax-ns#"
   xmlns:svg="http://www.w3.org/2000/svg"
   xmlns="http://www.w3.org/2000/svg"
   version="1.1"
   width="10"
   height="10"
   id="svg4888">
  <defs
     id="defs4890" />
  <metadata
     id="metadata4893">
    <rdf:RDF>
      <cc:Work
         rdf:about="">
        <dc:format>image/svg+xml</dc:format>
        <dc:type
           rdf:resource="http://purl.org/dc/dcmitype/StillImage" />
        <cc:license
           rdf:resource="http://creativecommons.org/licenses/by-sa/3.0/" />
        <dc:title></dc:title>
      </cc:Work>
      <cc:License
         rdf:about="http://creativecommons.org/licenses/by-sa/3.0/">
        <cc:permits
           rdf:resource="http://creativecommons.org/ns#Reproduction" />
        <cc:permits
           rdf:resource="http://creativecommons.org/ns#Distribution" />
        <cc:requires
           rdf:resource="http://creativecommons.org/ns#Notice" />
        <cc:requires
           rdf:resource="http://creativecommons.org/ns#Attribution" />
        <cc:permits
           rdf:resource="http://creativecommons.org/ns#DerivativeWorks" />
        <cc:requires
           rdf:resource="http://creativecommons.org/ns#ShareAlike" />
      </cc:License>
    </rdf:RDF>
  </metadata>
  <path
     d="M 4.9598633,0.36191559 C 4.6328048,0.34411564 4.3136941,0.53807907 4.0651981,0.96484218 L 0.17534911,8.1805116 c -0.33201883,0.5995907 0.030011,1.4586934 0.6807236,1.4586934 l 8.18813169,0 c 0.6109988,0 1.1844496,-0.7215763 0.7585206,-1.4586934 L 5.8739778,1.0037407 C 5.6258242,0.60158008 5.2869218,0.37973421 4.9598633,0.36191559 z M 4.9987618,2.8125204 C 5.337633,2.8018156 5.6513167,3.1154743 5.6405869,3.4543455 l 0,2.4506048 c 0.00436,0.3288074 -0.2935311,0.6223755 -0.6223758,0.6223755 -0.3288385,0 -0.627025,-0.2935681 -0.6223759,-0.6223755 l 0,-2.4506048 c -0.00498,-0.2904006 0.2203833,-0.5679366 0.5056804,-0.6223758 0.031803,-0.00902 0.064385,-0.015497 0.097246,-0.019418 z m 0.019449,4.3371813 c 0.3437257,0 0.6223758,0.2786501 0.6223758,0.6223758 0,0.3437257 -0.2786501,0.6223758 -0.6223758,0.6223758 -0.3437257,0 -0.6223759,-0.2786501 -0.6223759,-0.6223758 0,-0.3437257 0.2786502,-0.6223758 0.6223759,-0.6223758 z"
     id="path18112"
     style="color:#bebebe;fill:#fcaf3e;fill-opacity:1;fill-rule:nonzero;stroke:none;stroke-width:1.78124988;marker:none;visibility:visible;display:inline;overflow:visible;enable-background:new" />
</svg>
