<?xml version="1.0" encoding="UTF-8" standalone="no"?>
<!-- Created with Inkscape (http://www.inkscape.org/) -->

<svg
   xmlns:dc="http://purl.org/dc/elements/1.1/"
   xmlns:cc="http://creativecommons.org/ns#"
   xmlns:rdf="http://www.w3.org/1999/02/22-rdf-syntax-ns#"
   xmlns:svg="http://www.w3.org/2000/svg"
   xmlns="http://www.w3.org/2000/svg"
   version="1.1"
   width="16"
   height="16"
   id="svg2999">
  <defs
     id="defs3001" />
  <metadata
     id="metadata3004">
    <rdf:RDF>
      <cc:Work
         rdf:about="">
        <dc:format>image/svg+xml</dc:format>
        <dc:type
           rdf:resource="http://purl.org/dc/dcmitype/StillImage" />
        <cc:license
           rdf:resource="http://creativecommons.org/licenses/by-sa/3.0/" />
        <dc:title></dc:title>
      </cc:Work>
      <cc:License
         rdf:about="http://creativecommons.org/licenses/by-sa/3.0/">
        <cc:permits
           rdf:resource="http://creativecommons.org/ns#Reproduction" />
        <cc:permits
           rdf:resource="http://creativecommons.org/ns#Distribution" />
        <cc:requires
           rdf:resource="http://creativecommons.org/ns#Notice" />
        <cc:requires
           rdf:resource="http://creativecommons.org/ns#Attribution" />
        <cc:permits
           rdf:resource="http://creativecommons.org/ns#DerivativeWorks" />
        <cc:requires
           rdf:resource="http://creativecommons.org/ns#ShareAlike" />
      </cc:License>
    </rdf:RDF>
  </metadata>
  <path
     d="M 8.0251036,2 C 6.5204585,2 5.2887989,3.2316593 5.2887989,4.7363047 c 0,1.5046452 1.2316596,2.7363045 2.7363047,2.7363045 1.5046451,0 2.7363054,-1.2316593 2.7363054,-2.7363045 C 10.761409,3.2316593 9.5297487,2 8.0251037,2 z m 0,1.054356 c 0.9444444,0 1.6819488,0.737504 1.6819488,1.6819487 0,0.9444446 -0.7375043,1.7070523 -1.6819487,1.7070523 -0.9444445,0 -1.7070525,-0.7626077 -1.7070525,-1.7070523 0,-0.9444447 0.762608,-1.6819487 1.7070525,-1.6819487 z M 8.8033187,3.5313264 C 8.7422203,3.5475291 8.6962334,3.6118352 8.6526963,3.656845 l -0.025103,0 -0.7531115,0.7531114 c 0.00716,-0.00716 -0.1917088,0.1029008 -0.175726,0.3263483 0.019274,0.2694034 0.3320893,0.4189302 0.5522817,0.251037 l 0.8786296,-0.87863 C 9.2451232,3.9910562 9.2367481,3.8418413 9.1798743,3.7321562 9.1230005,3.622471 8.9911098,3.5047595 8.8284223,3.5313264 c -0.00836,-5.232e-4 -0.016746,-5.232e-4 -0.025103,0 z M 3.9834059,3.8325709 c 0,0 -1.2049782,0 -1.2049782,1.2049783 l 0,7.7323678 c 0,0 0,1.230083 1.2049783,1.230083 l 2.0082968,0 4.0165942,0 2.008297,0 c 1.204978,0 1.204978,-1.230083 1.204978,-1.230083 l 0,-7.7323678 c 0,-1.2049783 -1.204978,-1.2049783 -1.204978,-1.2049783 l -0.728008,0 c 0.07837,0.2861366 0.150622,0.5930348 0.150622,0.9037338 0,0.2427084 -0.02677,0.4735265 -0.07531,0.7029038 l 0.251036,0 0,6.9541545 -1.606637,0 -1.2049782,0 0,-4.3182646 c -0.2519434,0.060838 -0.5082573,0.075311 -0.778215,0.075311 -0.2889692,0 -0.5590766,-0.031004 -0.8284226,-0.1004149 l 0,4.3433685 -1.2049783,0 -1.6066375,0 0,-6.9541546 0.2761408,0 c -0.049477,-0.2293769 -0.07531,-0.460195 -0.07531,-0.7029034 0,-0.310699 0.070774,-0.6175972 0.1506222,-0.9037338 z"
     id="rect4897-9-4"
     style="fill-opacity:1;stroke:none" />
</svg>
