<?xml version="1.0" encoding="UTF-8" standalone="no"?>
<!-- Created with Inkscape (http://www.inkscape.org/) -->

<svg
   xmlns:dc="http://purl.org/dc/elements/1.1/"
   xmlns:cc="http://creativecommons.org/ns#"
   xmlns:rdf="http://www.w3.org/1999/02/22-rdf-syntax-ns#"
   xmlns:svg="http://www.w3.org/2000/svg"
   xmlns="http://www.w3.org/2000/svg"
   version="1.1"
   width="16"
   height="16"
   id="svg2983">
  <defs
     id="defs2985" />
  <metadata
     id="metadata2988">
    <rdf:RDF>
      <cc:Work
         rdf:about="">
        <dc:format>image/svg+xml</dc:format>
        <dc:type
           rdf:resource="http://purl.org/dc/dcmitype/StillImage" />
        <dc:title></dc:title>
      </cc:Work>
    </rdf:RDF>
  </metadata>
  <g
     id="layer1">
    <path
       d="M 4.4375,2 C 3.9170758,2 3.5,2.4170758 3.5,2.9375 l 0,0.125 C 3.5,3.5829242 3.9170758,4 4.4375,4 L 5,4 5,5 4.34375,5 C 3.8695589,5 3.5,5.3695589 3.5,5.84375 L 3.5,14 l 9,0 0,-8.15625 C 12.5,5.3695589 12.130442,5 11.65625,5 L 11,5 11,4 11.5625,4 C 12.082924,4 12.5,3.5829242 12.5,3.0625 l 0,-0.125 C 12.5,2.4170758 12.082924,2 11.5625,2 l -7.125,0 z"
       id="rect3007"
       style="color:#000000;fill-opacity:1;fill-rule:nonzero;stroke:none;stroke-width:0.9999997;marker:none;visibility:visible;display:block;overflow:visible;enable-background:new" />
  </g>
</svg>
