<?xml version="1.0" encoding="UTF-8" standalone="no"?>
<!-- Created with Inkscape (http://www.inkscape.org/) -->

<svg
   xmlns:dc="http://purl.org/dc/elements/1.1/"
   xmlns:cc="http://creativecommons.org/ns#"
   xmlns:rdf="http://www.w3.org/1999/02/22-rdf-syntax-ns#"
   xmlns:svg="http://www.w3.org/2000/svg"
   xmlns="http://www.w3.org/2000/svg"
   xmlns:xlink="http://www.w3.org/1999/xlink"
   xmlns:sodipodi="http://sodipodi.sourceforge.net/DTD/sodipodi-0.dtd"
   xmlns:inkscape="http://www.inkscape.org/namespaces/inkscape"
   width="16px"
   height="16px"
   id="svg7929"
   version="1.1"
   inkscape:version="0.48.4 r9939"
   sodipodi:docname="New document 67">
  <defs
     id="defs7931">
    <linearGradient
       inkscape:collect="always"
       xlink:href="#linearGradient7888"
       id="linearGradient3161-1-5-9-6"
       gradientUnits="userSpaceOnUse"
       gradientTransform="matrix(0.09329421,0,0,0.09329421,-35.870602,-43.768872)"
       x1="491.22195"
       y1="506.64685"
       x2="491.22195"
       y2="732.05341" />
    <linearGradient
       id="linearGradient7888">
      <stop
         id="stop7890"
         offset="0"
         style="stop-color:#204a87;stop-opacity:1;" />
      <stop
         id="stop7892"
         offset="1"
         style="stop-color:#bdd2e9;stop-opacity:1;" />
    </linearGradient>
    <radialGradient
       inkscape:collect="always"
       xlink:href="#linearGradient8978-0-9-0-8"
       id="radialGradient3175-6-6-4-0"
       gradientUnits="userSpaceOnUse"
       gradientTransform="matrix(0.9706301,1.96843e-8,0,0.2861052,-291.15791,-14.630262)"
       cx="301"
       cy="51.5"
       fx="301"
       fy="51.5"
       r="19.500002" />
    <linearGradient
       inkscape:collect="always"
       id="linearGradient8978-0-9-0-8">
      <stop
         style="stop-color:#ffffff;stop-opacity:1;"
         offset="0"
         id="stop8980-9-1-8-4" />
      <stop
         style="stop-color:#ffffff;stop-opacity:0;"
         offset="1"
         id="stop8982-2-2-4-4" />
    </linearGradient>
    <radialGradient
       r="20.530962"
       fy="35.87817"
       fx="24.44569"
       cy="35.87817"
       cx="24.44569"
       gradientTransform="matrix(0.8569597,3.2529443e-7,-1.2530456e-7,0.3301039,-20.948972,32.907402)"
       gradientUnits="userSpaceOnUse"
       id="radialGradient7833"
       xlink:href="#linearGradient7394-3"
       inkscape:collect="always" />
    <linearGradient
       id="linearGradient7394-3">
      <stop
         id="stop7396-0"
         offset="0.0000000"
         style="stop-color:#ffffff;stop-opacity:1.0000000;" />
      <stop
         id="stop7398-2"
         offset="1"
         style="stop-color:#cbdbed;stop-opacity:1;" />
    </linearGradient>
    <linearGradient
       y2="118.49502"
       x2="311.65057"
       y1="145.51683"
       x1="321.5675"
       gradientTransform="matrix(0.5556927,0,0,0.5556793,-177.26596,-38.770868)"
       gradientUnits="userSpaceOnUse"
       id="linearGradient7835"
       xlink:href="#linearGradient4247-6-9-9-7"
       inkscape:collect="always" />
    <linearGradient
       id="linearGradient4247-6-9-9-7">
      <stop
         style="stop-color:#204a87;stop-opacity:1;"
         offset="0"
         id="stop4249-2-0-1-7" />
      <stop
         style="stop-color:#bdd2e9;stop-opacity:1;"
         offset="1"
         id="stop4251-2-1-0-5" />
    </linearGradient>
    <radialGradient
       r="20.530962"
       fy="35.87817"
       fx="24.44569"
       cy="35.87817"
       cx="24.44569"
       gradientTransform="matrix(0.8569597,3.2529443e-7,-1.2530456e-7,0.3301039,-12.948972,0.77180763)"
       gradientUnits="userSpaceOnUse"
       id="radialGradient7925"
       xlink:href="#linearGradient7394-3"
       inkscape:collect="always" />
    <linearGradient
       y2="118.49502"
       x2="311.65057"
       y1="145.51683"
       x1="321.5675"
       gradientTransform="matrix(0.5556927,0,0,0.5556793,-169.26596,-70.906462)"
       gradientUnits="userSpaceOnUse"
       id="linearGradient7927"
       xlink:href="#linearGradient4247-6-9-9-7"
       inkscape:collect="always" />
  </defs>
  <sodipodi:namedview
     id="base"
     pagecolor="#ffffff"
     bordercolor="#666666"
     borderopacity="1.0"
     inkscape:pageopacity="0.0"
     inkscape:pageshadow="2"
     inkscape:zoom="22.197802"
     inkscape:cx="8"
     inkscape:cy="8"
     inkscape:current-layer="layer1"
     showgrid="true"
     inkscape:grid-bbox="true"
     inkscape:document-units="px"
     inkscape:window-width="700"
     inkscape:window-height="416"
     inkscape:window-x="1366"
     inkscape:window-y="27"
     inkscape:window-maximized="0" />
  <metadata
     id="metadata7934">
    <rdf:RDF>
      <cc:Work
         rdf:about="">
        <dc:format>image/svg+xml</dc:format>
        <dc:type
           rdf:resource="http://purl.org/dc/dcmitype/StillImage" />
        <cc:license
           rdf:resource="http://creativecommons.org/licenses/by-sa/3.0/" />
        <dc:title></dc:title>
      </cc:Work>
      <cc:License
         rdf:about="http://creativecommons.org/licenses/by-sa/3.0/">
        <cc:permits
           rdf:resource="http://creativecommons.org/ns#Reproduction" />
        <cc:permits
           rdf:resource="http://creativecommons.org/ns#Distribution" />
        <cc:requires
           rdf:resource="http://creativecommons.org/ns#Notice" />
        <cc:requires
           rdf:resource="http://creativecommons.org/ns#Attribution" />
        <cc:permits
           rdf:resource="http://creativecommons.org/ns#DerivativeWorks" />
        <cc:requires
           rdf:resource="http://creativecommons.org/ns#ShareAlike" />
      </cc:License>
    </rdf:RDF>
  </metadata>
  <g
     id="layer1"
     inkscape:label="Layer 1"
     inkscape:groupmode="layer">
    <rect
       y="0.49832821"
       x="0.49814749"
       width="15.003705"
       style="fill:url(#radialGradient7925);fill-opacity:1;fill-rule:evenodd;stroke:url(#linearGradient7927);stroke-width:1.00000095;stroke-linecap:butt;stroke-linejoin:bevel;stroke-miterlimit:10;stroke-opacity:1;stroke-dasharray:none;stroke-dashoffset:0;marker:none;visibility:visible;display:inline;overflow:visible;enable-background:new"
       ry="1.5142833"
       rx="1.5143198"
       id="rect4319-7-2-1-7"
       height="15.003344" />
    <rect
       y="1.5016088"
       x="1.5013518"
       width="12.997247"
       style="fill:none;stroke:#ffffff;stroke-width:0.99999994;stroke-linecap:butt;stroke-linejoin:bevel;stroke-miterlimit:10;stroke-opacity:1;stroke-dasharray:none;stroke-dashoffset:0;marker:none;visibility:visible;display:inline;overflow:visible;enable-background:new"
       ry="0.50810492"
       rx="0.5081172"
       id="rect4321-0-9-4-0"
       height="12.999963" />
    <rect
       height="14.000041"
       id="rect9035-4-9-5-7"
       rx="1.9062433"
       ry="1.9062428"
       style="fill:url(#radialGradient3175-6-6-4-0);fill-opacity:1;fill-rule:evenodd;stroke:none;stroke-width:1;marker:none;visibility:visible;display:inline;overflow:visible;enable-background:new"
       width="14.000044"
       x="1.0017486"
       y="1.0015783" />
    <path
       style="color:#000000;fill:#ffffff;fill-opacity:1;fill-rule:nonzero;stroke:none;stroke-width:0.9999997;marker:none;visibility:visible;display:block;overflow:visible;enable-background:new"
       d="m 10.949228,4.2050676 c -1.0071696,0 -1.8236196,0.81647 -1.8236196,1.82365 0,0.0859 0.007,0.16682 0.0192,0.24953 l -3.07139,1.49733 c -0.32655,-0.30804 -0.76342,-0.49911 -1.24775,-0.49911 -1.00719,0 -1.82365,0.81646 -1.82365,1.82365 0,1.0071504 0.81646,1.8236204 1.82365,1.8236204 0.49395,0 0.93854,-0.19935 1.26694,-0.5183 l 3.0522,1.53572 c -0.01,0.0767 -0.0192,0.15101 -0.0192,0.23035 0,1.00715 0.81645,1.82362 1.8236196,1.82362 1.00718,0 1.82364,-0.81647 1.82364,-1.82362 0,-1.0072 -0.81646,-1.82365 -1.82364,-1.82365 -0.47914,0 -0.9031,0.19689 -1.2285496,0.4991 l -3.0906,-1.5549004 c 0.007,-0.0644 0.0192,-0.12573 0.0192,-0.19194 0,-0.0727 -0.011,-0.14063 -0.0192,-0.21117 l 3.1098,-1.51651 c 0.3232296,0.29149 0.7398496,0.4799 1.2093496,0.4799 1.00718,0 1.82364,-0.81645 1.82364,-1.82362 0,-1.00718 -0.81646,-1.82365 -1.82364,-1.82365 z"
       id="path61000-8-7-3-8"
       inkscape:connector-curvature="0" />
    <path
       inkscape:connector-curvature="0"
       id="path61002-8-2-2-4"
       d="m 11.001008,3.1747386 c -1.0071696,0 -1.8236196,0.816469 -1.8236196,1.823649 0,0.0859 0.007,0.16682 0.0192,0.24953 l -3.07139,1.49733 c -0.32655,-0.30804 -0.76342,-0.49911 -1.24775,-0.49911 -1.00719,0 -1.82365,0.81646 -1.82365,1.82365 0,1.00715 0.81646,1.82362 1.82365,1.82362 0.49395,0 0.93854,-0.19935 1.26694,-0.5183 l 3.0522,1.5357204 c -0.01,0.0767 -0.0192,0.15101 -0.0192,0.23035 0,1.00715 0.81645,1.82362 1.8236196,1.82362 1.00718,0 1.82364,-0.81647 1.82364,-1.82362 0,-1.0072 -0.81646,-1.8236504 -1.82364,-1.8236504 -0.47914,0 -0.9031,0.19689 -1.2285496,0.4991 l -3.0906,-1.5549 c 0.007,-0.0644 0.0192,-0.12573 0.0192,-0.19194 0,-0.0727 -0.011,-0.14063 -0.0192,-0.21117 l 3.1098,-1.51651 c 0.3232296,0.29149 0.7398496,0.4799 1.2093496,0.4799 1.00718,0 1.82364,-0.81645 1.82364,-1.82362 0,-1.00718 -0.81646,-1.823649 -1.82364,-1.823649 z"
       style="color:#000000;fill:url(#linearGradient3161-1-5-9-6);fill-opacity:1;fill-rule:nonzero;stroke:none;stroke-width:0.9999997;marker:none;visibility:visible;display:block;overflow:visible;enable-background:new" />
  </g>
</svg>
