<?xml version="1.0" encoding="UTF-8" standalone="no"?>
<!-- Created with Inkscape (http://www.inkscape.org/) -->

<svg
   xmlns:dc="http://purl.org/dc/elements/1.1/"
   xmlns:cc="http://creativecommons.org/ns#"
   xmlns:rdf="http://www.w3.org/1999/02/22-rdf-syntax-ns#"
   xmlns:svg="http://www.w3.org/2000/svg"
   xmlns="http://www.w3.org/2000/svg"
   xmlns:xlink="http://www.w3.org/1999/xlink"
   version="1.1"
   width="16"
   height="16"
   id="svg6067">
  <defs
     id="defs6069">
    <linearGradient
       x1="491.22195"
       y1="506.64685"
       x2="491.22195"
       y2="732.05341"
       id="linearGradient3161-1-5"
       xlink:href="#linearGradient6020"
       gradientUnits="userSpaceOnUse"
       gradientTransform="matrix(0.09329421,0,0,0.09329421,-35.870601,-43.768871)" />
    <linearGradient
       id="linearGradient6020">
      <stop
         id="stop6022"
         style="stop-color:#ce5c00;stop-opacity:1"
         offset="0" />
      <stop
         id="stop6024"
         style="stop-color:#fedba8;stop-opacity:1"
         offset="1" />
    </linearGradient>
    <radialGradient
       cx="301"
       cy="51.5"
       r="19.500002"
       fx="301"
       fy="51.5"
       id="radialGradient3175-6-6"
       xlink:href="#linearGradient8978-0-9"
       gradientUnits="userSpaceOnUse"
       gradientTransform="matrix(0.9706301,1.96843e-8,0,0.2861052,-291.15791,-14.630261)" />
    <linearGradient
       id="linearGradient8978-0-9">
      <stop
         id="stop8980-9-1"
         style="stop-color:#ffffff;stop-opacity:1"
         offset="0" />
      <stop
         id="stop8982-2-2"
         style="stop-color:#ffffff;stop-opacity:0"
         offset="1" />
    </linearGradient>
    <radialGradient
       cx="24.44569"
       cy="35.87817"
       r="20.530962"
       fx="24.44569"
       fy="35.87817"
       id="radialGradient5965"
       xlink:href="#linearGradient6026"
       gradientUnits="userSpaceOnUse"
       gradientTransform="matrix(0.8569597,3.2529443e-7,-1.2530456e-7,0.3301039,44.406962,-13.194293)" />
    <linearGradient
       id="linearGradient6026">
      <stop
         id="stop6028"
         style="stop-color:#ffffff;stop-opacity:1"
         offset="0" />
      <stop
         id="stop6030"
         style="stop-color:#fee2ba;stop-opacity:1"
         offset="1" />
    </linearGradient>
    <linearGradient
       x1="321.5675"
       y1="145.51683"
       x2="311.65057"
       y2="118.49502"
       id="linearGradient5967"
       xlink:href="#linearGradient4247-6-9"
       gradientUnits="userSpaceOnUse"
       gradientTransform="matrix(0.5556927,0,0,0.5556793,-111.91003,-84.872563)" />
    <linearGradient
       id="linearGradient4247-6-9">
      <stop
         id="stop4249-2-0"
         style="stop-color:#ce5c00;stop-opacity:1"
         offset="0" />
      <stop
         id="stop4251-2-1"
         style="stop-color:#fedba8;stop-opacity:1"
         offset="1" />
    </linearGradient>
    <radialGradient
       cx="24.44569"
       cy="35.87817"
       r="20.530962"
       fx="24.44569"
       fy="35.87817"
       id="radialGradient6063"
       xlink:href="#linearGradient6026"
       gradientUnits="userSpaceOnUse"
       gradientTransform="matrix(0.8569597,3.2529443e-7,-1.2530456e-7,0.3301039,-12.948971,0.77180864)" />
    <linearGradient
       x1="321.5675"
       y1="145.51683"
       x2="311.65057"
       y2="118.49502"
       id="linearGradient6065"
       xlink:href="#linearGradient4247-6-9"
       gradientUnits="userSpaceOnUse"
       gradientTransform="matrix(0.5556927,0,0,0.5556793,-169.26596,-70.906461)" />
  </defs>
  <metadata
     id="metadata6072">
    <rdf:RDF>
      <cc:Work
         rdf:about="">
        <dc:format>image/svg+xml</dc:format>
        <dc:type
           rdf:resource="http://purl.org/dc/dcmitype/StillImage" />
        <dc:title></dc:title>
      </cc:Work>
    </rdf:RDF>
  </metadata>
  <g
     id="layer1">
    <rect
       width="15.003705"
       height="15.003344"
       rx="1.5143198"
       ry="1.5142833"
       x="0.49814749"
       y="0.49832821"
       id="rect4319-7-2"
       style="fill:url(#radialGradient6063);fill-opacity:1;fill-rule:evenodd;stroke:url(#linearGradient6065);stroke-width:1.00000095;stroke-linecap:butt;stroke-linejoin:bevel;stroke-miterlimit:10;stroke-opacity:1;stroke-dasharray:none;stroke-dashoffset:0;marker:none;visibility:visible;display:inline;overflow:visible;enable-background:new" />
    <rect
       width="12.997247"
       height="12.999963"
       rx="0.5081172"
       ry="0.50810492"
       x="1.5013518"
       y="1.5016088"
       id="rect4321-0-9"
       style="fill:none;stroke:#ffffff;stroke-width:0.99999994;stroke-linecap:butt;stroke-linejoin:bevel;stroke-miterlimit:10;stroke-opacity:1;stroke-dasharray:none;stroke-dashoffset:0;marker:none;visibility:visible;display:inline;overflow:visible;enable-background:new" />
    <rect
       width="14.000044"
       height="14.000041"
       rx="1.9062433"
       ry="1.9062428"
       x="1.0017486"
       y="1.0015783"
       id="rect9035-4-9"
       style="fill:url(#radialGradient3175-6-6);fill-opacity:1;fill-rule:evenodd;stroke:none;stroke-width:1;marker:none;visibility:visible;display:inline;overflow:visible;enable-background:new" />
    <path
       d="m 10.949229,4.2050691 c -1.0071697,0 -1.8236197,0.81647 -1.8236197,1.82365 0,0.0859 0.007,0.16682 0.0192,0.24953 l -3.07139,1.49733 c -0.32655,-0.30804 -0.76342,-0.49911 -1.24775,-0.49911 -1.00719,0 -1.82365,0.81646 -1.82365,1.82365 0,1.0071499 0.81646,1.8236199 1.82365,1.8236199 0.49395,0 0.93854,-0.19935 1.26694,-0.5183 l 3.0522,1.53572 c -0.01,0.0767 -0.0192,0.15101 -0.0192,0.23035 0,1.00715 0.81645,1.82362 1.8236197,1.82362 1.00718,0 1.82364,-0.81647 1.82364,-1.82362 0,-1.0072 -0.81646,-1.82365 -1.82364,-1.82365 -0.47914,0 -0.9031,0.19689 -1.2285497,0.4991 l -3.0906,-1.5548999 c 0.007,-0.0644 0.0192,-0.12573 0.0192,-0.19194 0,-0.0727 -0.011,-0.14063 -0.0192,-0.21117 l 3.1098,-1.51651 c 0.3232297,0.29149 0.7398497,0.4799 1.2093497,0.4799 1.00718,0 1.82364,-0.81645 1.82364,-1.82362 0,-1.00718 -0.81646,-1.82365 -1.82364,-1.82365 z"
       id="path61000-8-7"
       style="color:#000000;fill:#ffffff;fill-opacity:1;fill-rule:nonzero;stroke:none;stroke-width:0.9999997;marker:none;visibility:visible;display:block;overflow:visible;enable-background:new" />
    <path
       d="m 11.001009,3.1747396 c -1.0071697,0 -1.8236197,0.8164695 -1.8236197,1.8236495 0,0.0859 0.007,0.16682 0.0192,0.24953 l -3.07139,1.49733 c -0.32655,-0.30804 -0.76342,-0.49911 -1.24775,-0.49911 -1.00719,0 -1.82365,0.81646 -1.82365,1.82365 0,1.00715 0.81646,1.82362 1.82365,1.82362 0.49395,0 0.93854,-0.19935 1.26694,-0.5183 l 3.0522,1.5357199 c -0.01,0.0767 -0.0192,0.15101 -0.0192,0.23035 0,1.00715 0.81645,1.82362 1.8236197,1.82362 1.00718,0 1.82364,-0.81647 1.82364,-1.82362 0,-1.0072 -0.81646,-1.8236499 -1.82364,-1.8236499 -0.47914,0 -0.9031,0.19689 -1.2285497,0.4991 l -3.0906,-1.5549 c 0.007,-0.0644 0.0192,-0.12573 0.0192,-0.19194 0,-0.0727 -0.011,-0.14063 -0.0192,-0.21117 l 3.1098,-1.51651 c 0.3232297,0.29149 0.7398497,0.4799 1.2093497,0.4799 1.00718,0 1.82364,-0.81645 1.82364,-1.82362 0,-1.00718 -0.81646,-1.8236495 -1.82364,-1.8236495 z"
       id="path61002-8-2"
       style="color:#000000;fill:url(#linearGradient3161-1-5);fill-opacity:1;fill-rule:nonzero;stroke:none;stroke-width:0.9999997;marker:none;visibility:visible;display:block;overflow:visible;enable-background:new" />
  </g>
</svg>
