<?xml version="1.0" encoding="UTF-8" standalone="no"?>
<!-- Created with Inkscape (http://www.inkscape.org/) -->

<svg
   xmlns:dc="http://purl.org/dc/elements/1.1/"
   xmlns:cc="http://creativecommons.org/ns#"
   xmlns:rdf="http://www.w3.org/1999/02/22-rdf-syntax-ns#"
   xmlns:svg="http://www.w3.org/2000/svg"
   xmlns="http://www.w3.org/2000/svg"
   xmlns:xlink="http://www.w3.org/1999/xlink"
   version="1.1"
   width="16"
   height="16"
   id="svg8842">
  <defs
     id="defs8844">
    <linearGradient
       x1="491.22195"
       y1="506.64685"
       x2="491.22195"
       y2="732.05341"
       id="linearGradient3161-1-5-9-6-7"
       xlink:href="#linearGradient7888-2"
       gradientUnits="userSpaceOnUse"
       gradientTransform="matrix(0.09329421,0,0,0.09329421,-35.870603,-43.768871)" />
    <linearGradient
       id="linearGradient7888-2">
      <stop
         id="stop7890-1"
         style="stop-color:#5c3566;stop-opacity:1"
         offset="0" />
      <stop
         id="stop7892-2"
         style="stop-color:#ddc9db;stop-opacity:1"
         offset="1" />
    </linearGradient>
    <radialGradient
       cx="301"
       cy="51.5"
       r="19.500002"
       fx="301"
       fy="51.5"
       id="radialGradient3175-6-6-4-0-5"
       xlink:href="#linearGradient8978-0-9-0-8-0"
       gradientUnits="userSpaceOnUse"
       gradientTransform="matrix(0.9706301,1.96843e-8,0,0.2861052,-291.15791,-14.63026)" />
    <linearGradient
       id="linearGradient8978-0-9-0-8-0">
      <stop
         id="stop8980-9-1-8-4-8"
         style="stop-color:#ffffff;stop-opacity:1"
         offset="0" />
      <stop
         id="stop8982-2-2-4-4-7"
         style="stop-color:#ffffff;stop-opacity:0"
         offset="1" />
    </linearGradient>
    <radialGradient
       cx="24.44569"
       cy="35.87817"
       r="20.530962"
       fx="24.44569"
       fy="35.87817"
       id="radialGradient8752"
       xlink:href="#linearGradient7394-3-6"
       gradientUnits="userSpaceOnUse"
       gradientTransform="matrix(0.8569597,3.2529443e-7,-1.2530456e-7,0.3301039,17.966282,36.432825)" />
    <linearGradient
       id="linearGradient7394-3-6">
      <stop
         id="stop7396-0-1"
         style="stop-color:#ffffff;stop-opacity:1"
         offset="0" />
      <stop
         id="stop7398-2-7"
         style="stop-color:#e4d4e2;stop-opacity:1"
         offset="1" />
    </linearGradient>
    <linearGradient
       x1="321.5675"
       y1="145.51683"
       x2="311.65057"
       y2="118.49502"
       id="linearGradient8754"
       xlink:href="#linearGradient4247-6-9-9-7-1"
       gradientUnits="userSpaceOnUse"
       gradientTransform="matrix(0.5556927,0,0,0.5556793,-138.35071,-35.245445)" />
    <linearGradient
       id="linearGradient4247-6-9-9-7-1">
      <stop
         id="stop4249-2-0-1-7-0"
         style="stop-color:#5c3566;stop-opacity:1"
         offset="0" />
      <stop
         id="stop4251-2-1-0-5-9"
         style="stop-color:#ddc9db;stop-opacity:1"
         offset="1" />
    </linearGradient>
    <radialGradient
       cx="24.44569"
       cy="35.87817"
       r="20.530962"
       fx="24.44569"
       fy="35.87817"
       id="radialGradient8838"
       xlink:href="#linearGradient7394-3-6"
       gradientUnits="userSpaceOnUse"
       gradientTransform="matrix(0.8569597,3.2529443e-7,-1.2530456e-7,0.3301039,-12.948973,0.77180949)" />
    <linearGradient
       x1="321.5675"
       y1="145.51683"
       x2="311.65057"
       y2="118.49502"
       id="linearGradient8840"
       xlink:href="#linearGradient4247-6-9-9-7-1"
       gradientUnits="userSpaceOnUse"
       gradientTransform="matrix(0.5556927,0,0,0.5556793,-169.26596,-70.90646)" />
  </defs>
  <metadata
     id="metadata8847">
    <rdf:RDF>
      <cc:Work
         rdf:about="">
        <dc:format>image/svg+xml</dc:format>
        <dc:type
           rdf:resource="http://purl.org/dc/dcmitype/StillImage" />
        <dc:title></dc:title>
      </cc:Work>
    </rdf:RDF>
  </metadata>
  <g
     id="layer1">
    <rect
       width="15.003705"
       height="15.003344"
       rx="1.5143198"
       ry="1.5142833"
       x="0.49814749"
       y="0.49832821"
       id="rect4319-7-2-1-7-0"
       style="fill:url(#radialGradient8838);fill-opacity:1;fill-rule:evenodd;stroke:url(#linearGradient8840);stroke-width:1.00000095;stroke-linecap:butt;stroke-linejoin:bevel;stroke-miterlimit:10;stroke-opacity:1;stroke-dasharray:none;stroke-dashoffset:0;marker:none;visibility:visible;display:inline;overflow:visible;enable-background:new" />
    <rect
       width="12.997247"
       height="12.999963"
       rx="0.5081172"
       ry="0.50810492"
       x="1.5013518"
       y="1.5016088"
       id="rect4321-0-9-4-0-5"
       style="fill:none;stroke:#ffffff;stroke-width:0.99999994;stroke-linecap:butt;stroke-linejoin:bevel;stroke-miterlimit:10;stroke-opacity:1;stroke-dasharray:none;stroke-dashoffset:0;marker:none;visibility:visible;display:inline;overflow:visible;enable-background:new" />
    <rect
       width="14.000044"
       height="14.000041"
       rx="1.9062433"
       ry="1.9062428"
       x="1.0017486"
       y="1.0015783"
       id="rect9035-4-9-5-7-3"
       style="fill:url(#radialGradient3175-6-6-4-0-5);fill-opacity:1;fill-rule:evenodd;stroke:none;stroke-width:1;marker:none;visibility:visible;display:inline;overflow:visible;enable-background:new" />
    <path
       d="m 10.949227,4.2050695 c -1.0071691,0 -1.8236191,0.81647 -1.8236191,1.82365 0,0.0859 0.007,0.16682 0.0192,0.24953 l -3.07139,1.49733 c -0.32655,-0.30804 -0.76342,-0.49911 -1.24775,-0.49911 -1.00719,0 -1.82365,0.81646 -1.82365,1.82365 0,1.0071505 0.81646,1.8236205 1.82365,1.8236205 0.49395,0 0.93854,-0.19935 1.26694,-0.5183 l 3.0522,1.53572 c -0.01,0.0767 -0.0192,0.15101 -0.0192,0.23035 0,1.00715 0.81645,1.82362 1.8236191,1.82362 1.00718,0 1.82364,-0.81647 1.82364,-1.82362 0,-1.0072 -0.81646,-1.82365 -1.82364,-1.82365 -0.47914,0 -0.9031,0.19689 -1.2285491,0.4991 l -3.0906,-1.5549005 c 0.007,-0.0644 0.0192,-0.12573 0.0192,-0.19194 0,-0.0727 -0.011,-0.14063 -0.0192,-0.21117 l 3.1098,-1.51651 c 0.3232291,0.29149 0.7398491,0.4799 1.2093491,0.4799 1.00718,0 1.82364,-0.81645 1.82364,-1.82362 0,-1.00718 -0.81646,-1.82365 -1.82364,-1.82365 z"
       id="path61000-8-7-3-8-2"
       style="color:#000000;fill:#ffffff;fill-opacity:1;fill-rule:nonzero;stroke:none;stroke-width:0.9999997;marker:none;visibility:visible;display:block;overflow:visible;enable-background:new" />
    <path
       d="m 11.001007,3.1747405 c -1.0071691,0 -1.8236191,0.816469 -1.8236191,1.823649 0,0.0859 0.007,0.16682 0.0192,0.24953 l -3.07139,1.49733 c -0.32655,-0.30804 -0.76342,-0.49911 -1.24775,-0.49911 -1.00719,0 -1.82365,0.81646 -1.82365,1.82365 0,1.00715 0.81646,1.82362 1.82365,1.82362 0.49395,0 0.93854,-0.19935 1.26694,-0.5183 l 3.0522,1.5357205 c -0.01,0.0767 -0.0192,0.15101 -0.0192,0.23035 0,1.00715 0.81645,1.82362 1.8236191,1.82362 1.00718,0 1.82364,-0.81647 1.82364,-1.82362 0,-1.0072 -0.81646,-1.8236505 -1.82364,-1.8236505 -0.47914,0 -0.9031,0.19689 -1.2285491,0.4991 l -3.0906,-1.5549 c 0.007,-0.0644 0.0192,-0.12573 0.0192,-0.19194 0,-0.0727 -0.011,-0.14063 -0.0192,-0.21117 l 3.1098,-1.51651 c 0.3232291,0.29149 0.7398491,0.4799 1.2093491,0.4799 1.00718,0 1.82364,-0.81645 1.82364,-1.82362 0,-1.00718 -0.81646,-1.823649 -1.82364,-1.823649 z"
       id="path61002-8-2-2-4-4"
       style="color:#000000;fill:url(#linearGradient3161-1-5-9-6-7);fill-opacity:1;fill-rule:nonzero;stroke:none;stroke-width:0.9999997;marker:none;visibility:visible;display:block;overflow:visible;enable-background:new" />
  </g>
</svg>
