<?xml version="1.0" encoding="UTF-8" standalone="no"?>
<svg xmlns:dc="http://purl.org/dc/elements/1.1/" xmlns:cc="http://creativecommons.org/ns#" xmlns:rdf="http://www.w3.org/1999/02/22-rdf-syntax-ns#" xmlns:svg="http://www.w3.org/2000/svg" xmlns="http://www.w3.org/2000/svg" xmlns:sodipodi="http://sodipodi.sourceforge.net/DTD/sodipodi-0.dtd" xmlns:inkscape="http://www.inkscape.org/namespaces/inkscape" id="svg20" version="1.1" height="345" width="431" sodipodi:docname="X.Org_Logo-BW.svg" inkscape:version="0.92.3 (2405546, 2018-03-11)">
 <sodipodi:namedview pagecolor="#ffffff" bordercolor="#666666" borderopacity="1" objecttolerance="10" gridtolerance="10" guidetolerance="10" inkscape:pageopacity="0" inkscape:pageshadow="2" inkscape:window-width="1536" inkscape:window-height="800" id="namedview23" showgrid="false" inkscape:zoom="1.4068218" inkscape:cx="224.88695" inkscape:cy="151.88074" inkscape:window-x="0" inkscape:window-y="27" inkscape:window-maximized="1" inkscape:current-layer="svg20" />
 <metadata id="metadata24">
  <rdf:RDF>
   <cc:Work rdf:about="">
    <dc:format>image/svg+xml</dc:format>
    <dc:type rdf:resource="http://purl.org/dc/dcmitype/StillImage" />
    <dc:title />
   </cc:Work>
  </rdf:RDF>
 </metadata>
 <style id="style2" type="text/css"><![CDATA[
#P1 {fill:url(#LO)}
rect {opacity:.40740739;fill:#000cff;width:.50507629;height:0}
]]></style>
 <defs id="defs9">
  <marker style="overflow:visible" id="Arrow1Lstart" refX="0.0" refY="0.0" orient="auto">
   <path transform="scale(0.8) translate(12.5,0)" style="fill-rule:evenodd;stroke:none;stroke-width:1pt;stroke-opacity:1;fill:#e54c18;fill-opacity:1" d="M 0.0,0.0 L 5.0,-5.0 L -12.5,0.0 L 5.0,5.0 L 0.0,0.0 z " id="path4676" />
  </marker>
  <linearGradient gradientTransform="translate(-270.9263,-65.70092)" y2="269.49396" x2="657.65295" y1="235.14877" x1="319.20822" gradientUnits="userSpaceOnUse" id="LO">
   <stop id="stop4" offset="0" style="stop-color:#e54c18" />
   <stop id="stop6" offset="1" style="stop-color:#fec350" />
  </linearGradient>
  <linearGradient gradientTransform="translate(-270.9263,-65.70092)" y2="269.49396" x2="657.65295" y1="235.14877" x1="319.20822" gradientUnits="userSpaceOnUse" id="LO-3">
   <stop id="stop4-6" offset="0" style="stop-color:#e54c18" />
   <stop id="stop6-7" offset="1" style="stop-color:#fec350" />
  </linearGradient>
  <linearGradient gradientTransform="translate(-270.9263,-65.700916)" y2="269.49396" x2="657.65295" y1="235.14877" x1="319.20822" gradientUnits="userSpaceOnUse" id="LO-3-6">
   <stop id="stop4-6-2" offset="0" style="stop-color:#e54c18" />
   <stop id="stop6-7-9" offset="1" style="stop-color:#fec350" />
  </linearGradient>
  <linearGradient gradientTransform="translate(-270.9263,-65.700922)" y2="269.49396" x2="657.65295" y1="235.14877" x1="319.20822" gradientUnits="userSpaceOnUse" id="LO-3-2">
   <stop id="stop4-6-7" offset="0" style="stop-color:#e54c18" />
   <stop id="stop6-7-0" offset="1" style="stop-color:#fec350" />
  </linearGradient>
 </defs>
 <path d="m 335.49222,19.896312 -137.40625,179.408208 69.49218,96.58789 c 1.34509,-0.24456 2.68321,-0.50225 4.01368,-0.77149 0.0202,-0.004 0.0404,-0.008 0.0605,-0.0117 0.057,-0.0116 0.11292,-0.0255 0.16993,-0.0371 1.24093,-0.25261 2.47539,-0.51528 3.70312,-0.78907 0.15003,-0.0335 0.29939,-0.0678 0.44922,-0.10156 1.08363,-0.24424 2.16142,-0.49728 3.23437,-0.75781 0.34053,-0.0827 0.6801,-0.16762 1.01954,-0.25195 0.94852,-0.23561 1.89219,-0.47836 2.83203,-0.72657 0.30404,-0.0803 0.60899,-0.1586 0.91211,-0.24023 1.0141,-0.27303 2.0218,-0.55424 3.02539,-0.8418 0.23034,-0.066 0.46162,-0.13049 0.6914,-0.19726 1.09816,-0.31907 2.1903,-0.64811 3.27539,-0.98438 0.1436,-0.0445 0.28828,-0.088 0.43164,-0.13281 2.49877,-0.78082 4.96276,-1.60457 7.38868,-2.47461 1.20957,-0.43381 2.40894,-0.8805 3.59961,-1.33594 0.0195,-0.007 0.0391,-0.014 0.0586,-0.0215 0.0885,-0.0339 0.17524,-0.0695 0.26367,-0.10352 1.0221,-0.3932 2.0372,-0.79422 3.04492,-1.20312 0.33423,-0.13565 0.66543,-0.27475 0.99805,-0.41211 0.80125,-0.33083 1.59881,-0.6652 2.39062,-1.00586 0.37463,-0.1612 0.74667,-0.3249 1.11915,-0.48828 0.71082,-0.31175 1.41816,-0.62764 2.12109,-0.94727 0.44944,-0.20439 0.89758,-0.4096 1.34375,-0.61719 0.6582,-0.3062 1.3119,-0.6166 1.96289,-0.92968 0.41694,-0.20055 0.8341,-0.40213 1.24805,-0.60547 0.75687,-0.37177 1.50717,-0.74982 2.2539,-1.13086 0.28178,-0.1438 0.56539,-0.28459 0.84571,-0.42969 0.82558,-0.42732 1.64232,-0.86222 2.45507,-1.30078 0.24651,-0.13302 0.49688,-0.26244 0.74219,-0.39649 1.03116,-0.56342 2.05274,-1.13548 3.0625,-1.71679 L 248.42191,165.83772 359.97269,19.896312 Z M 67.867224,20.031078 182.24417,179.74397 c -21.80966,28.51711 -43.6195,57.03408 -65.42969,85.55078 5.15917,3.8597 10.7195,7.45416 16.63867,10.74805 33.02236,-43.45606 66.04558,-86.91146 99.06836,-130.36719 L 141.38284,20.093578 Z M 335.98245,288.49983 c -0.0226,0.0134 -0.0458,0.0257 -0.0684,0.0391 -1.00285,0.59352 -2.01454,1.18095 -3.03711,1.75977 -0.0143,0.008 -0.0287,0.0154 -0.043,0.0234 -0.0233,0.0132 -0.047,0.0259 -0.0703,0.0391 -1.01196,0.57187 -2.03359,1.13612 -3.06445,1.69336 -0.0257,0.0139 -0.0504,0.0291 -0.0762,0.043 -0.0484,0.0261 -0.0981,0.0501 -0.14649,0.0762 -1.0328,0.5565 -2.07366,1.10684 -3.125,1.64844 -1.10093,0.56714 -2.21118,1.12721 -3.33203,1.67773 -13.43884,6.60067 -28.29112,11.99639 -44.20117,15.94727 -0.0137,0.003 -0.0273,0.006 -0.041,0.01 l 9.81836,13.64649 h 73.51563 z M 97.816444,290.1346 c -8.88923,11.62247 -17.77865,23.24479 -26.66797,34.86718 h 25.10156 c 6.541636,-8.60874 13.083296,-17.21747 19.624996,-25.82617 -6.30505,-2.76605 -12.33562,-5.78722 -18.058586,-9.04101 z" id="path11-5-3" inkscape:connector-curvature="0" sodipodi:nodetypes="ccccccccccccccccccccccccccccccccccccccccccccccccccccscccccccccc" />
 <path inkscape:connector-curvature="0" id="P1-5" d="m 215.48438,78.125 c -8.85104,0 -18.3075,0.686736 -26.82032,1.503906 15.16593,19.77999 27.74962,36.528414 42.23242,55.550784 -8.12876,-17.49293 -24.83426,-34.26745 -19.05859,-42.894534 5.71717,-8.53969 16.25035,-7.101562 17.05273,-7.101562 16.88849,0 33.14525,1.90739 48.34376,5.4375 l 3.5625,-4.90625 C 260.52606,80.496584 238.50838,78.125 215.48438,78.125 Z m -0.92383,5.03125 c -2.49526,1.421689 -4.93084,3.437848 -6.87891,6.347656 -0.96653,1.443707 -1.44501,3.019643 -1.7168,4.619141 -2.57745,-3.390874 -5.09566,-6.719096 -7.78125,-10.236328 5.49015,-0.403354 11.01672,-0.701826 16.37696,-0.730469 z m 92.39257,10.933594 -3.28124,4.6875 c 46.8258,18.336636 78.5,53.360296 78.5,93.499996 0,59.10603 -68.66486,107.0625 -153.28126,107.0625 -84.61639,-10e-6 -153.312495,-47.95648 -153.312495,-107.0625 1e-5,-32.18776 20.37158,-61.08003 52.593755,-80.71875 L 118.26562,96.464844 C 67.719485,117.89667 34.171885,155.51447 34.171875,198.33984 c 0,66.63368 81.222505,120.6875 181.312505,120.6875 100.08999,0 181.34374,-54.05381 181.34374,-120.6875 0,-44.43292 -36.12254,-83.29246 -89.875,-104.249996 z m -190.46289,8.781246 4.80079,7.31446 c -30.778057,20.23071 -50.712885,49.33347 -50.712895,82.09179 0,31.4901 18.333344,59.7346 47.062495,79.79493 28.72918,20.06032 67.99722,32.26757 111.25,32.26757 43.2528,0 82.51289,-12.20696 111.23438,-32.26757 28.72149,-20.06062 47.04686,-48.30571 47.04688,-79.79493 0,-15.19369 -4.30259,-29.57626 -11.91993,-42.68359 10.62365,14.91436 16.57618,31.44572 16.57617,48.74609 0,31.2845 -19.0594,59.9747 -50.9082,81.16797 -31.84879,21.19327 -76.29065,34.51953 -125.43554,34.51953 -49.14493,0 -93.57908,-13.3265 -125.419927,-34.51953 -31.840846,-21.19303 -50.892578,-49.88269 -50.892578,-81.16797 9e-6,-39.15273 30.194584,-74.32516 77.318355,-95.46875 z" style="fill-opacity:1;" />
 <rect x="464.64883" y="155.85602" width="0.50507629" height="0" id="rect16" style="opacity:0.40740739;fill:#000cff" />
</svg>
