<?xml version="1.0" encoding="UTF-8" standalone="no"?>
<svg xmlns:dc="http://purl.org/dc/elements/1.1/" xmlns:cc="http://creativecommons.org/ns#" xmlns:rdf="http://www.w3.org/1999/02/22-rdf-syntax-ns#" xmlns:svg="http://www.w3.org/2000/svg" xmlns="http://www.w3.org/2000/svg" id="svg20" version="1.1" height="345" width="431">
 <metadata id="metadata24">
  <rdf:RDF>
   <cc:Work rdf:about="">
    <dc:format>image/svg+xml</dc:format>
    <dc:type rdf:resource="http://purl.org/dc/dcmitype/StillImage" />
    <dc:title></dc:title>
   </cc:Work>
  </rdf:RDF>
 </metadata>
 <style id="style2" type="text/css"><![CDATA[
#P1 {fill:url(#LO)}
rect {opacity:.40740739;fill:#000cff;width:.50507629;height:0}
]]></style>
 <defs id="defs9">
  <marker style="overflow:visible" id="Arrow1Lstart" refX="0.0" refY="0.0" orient="auto">
   <path transform="scale(0.8) translate(12.5,0)" style="fill-rule:evenodd;stroke:none;stroke-width:1pt;stroke-opacity:1;fill:#e54c18;fill-opacity:1" d="M 0.0,0.0 L 5.0,-5.0 L -12.5,0.0 L 5.0,5.0 L 0.0,0.0 z " id="path4676" />
  </marker>
  <linearGradient gradientTransform="translate(-270.9263,-65.70092)" y2="269.49396" x2="657.65295" y1="235.14877" x1="319.20822" gradientUnits="userSpaceOnUse" id="LO">
   <stop id="stop4" offset="0" style="stop-color:#e54c18" />
   <stop id="stop6" offset="1" style="stop-color:#fec350" />
  </linearGradient>
  <linearGradient gradientTransform="translate(-270.9263,-65.70092)" y2="269.49396" x2="657.65295" y1="235.14877" x1="319.20822" gradientUnits="userSpaceOnUse" id="LO-3">
   <stop id="stop4-6" offset="0" style="stop-color:#e54c18" />
   <stop id="stop6-7" offset="1" style="stop-color:#fec350" />
  </linearGradient>
  <linearGradient gradientTransform="translate(-270.9263,-65.700916)" y2="269.49396" x2="657.65295" y1="235.14877" x1="319.20822" gradientUnits="userSpaceOnUse" id="LO-3-6">
   <stop id="stop4-6-2" offset="0" style="stop-color:#e54c18" />
   <stop id="stop6-7-9" offset="1" style="stop-color:#fec350" />
  </linearGradient>
  <linearGradient gradientTransform="translate(-270.9263,-65.700922)" y2="269.49396" x2="657.65295" y1="235.14877" x1="319.20822" gradientUnits="userSpaceOnUse" id="LO-3-2">
   <stop id="stop4-6-7" offset="0" style="stop-color:#e54c18" />
   <stop id="stop6-7-0" offset="1" style="stop-color:#fec350" />
  </linearGradient>
 </defs>
 <path id="P1-5" d="M 215.48438 78.125 C 206.63334 78.125 197.17688 78.811736 188.66406 79.628906 C 203.82999 99.408896 216.41368 116.15732 230.89648 135.17969 C 222.76772 117.68676 206.06222 100.91224 211.83789 92.285156 C 217.55506 83.745466 228.08824 85.183594 228.89062 85.183594 C 245.77911 85.183594 262.03587 87.090984 277.23438 90.621094 L 280.79688 85.714844 C 260.52606 80.496584 238.50838 78.125 215.48438 78.125 z M 214.56055 83.15625 C 212.06529 84.577939 209.62971 86.594098 207.68164 89.503906 C 206.71511 90.947613 206.23663 92.523549 205.96484 94.123047 C 203.38739 90.732173 200.86918 87.403951 198.18359 83.886719 C 203.67374 83.483365 209.20031 83.184893 214.56055 83.15625 z M 306.95312 94.089844 L 303.67188 98.777344 C 350.49768 117.11398 382.17188 152.13764 382.17188 192.27734 C 382.17188 251.38337 313.50702 299.33984 228.89062 299.33984 C 144.27423 299.33983 75.578125 251.38336 75.578125 192.27734 C 75.578135 160.08958 95.949705 131.19731 128.17188 111.55859 L 118.26562 96.464844 C 67.719485 117.89667 34.171885 155.51447 34.171875 198.33984 C 34.171875 264.97352 115.39438 319.02734 215.48438 319.02734 C 315.57437 319.02734 396.82812 264.97353 396.82812 198.33984 C 396.82812 153.90692 360.70558 115.04738 306.95312 94.089844 z M 116.49023 102.87109 L 121.29102 110.18555 C 90.512963 130.41626 70.578135 159.51902 70.578125 192.27734 C 70.578125 223.76744 88.911469 252.01194 117.64062 272.07227 C 146.3698 292.13259 185.63784 304.33984 228.89062 304.33984 C 272.14342 304.33984 311.40351 292.13288 340.125 272.07227 C 368.84649 252.01165 387.17186 223.76656 387.17188 192.27734 C 387.17188 177.08365 382.86929 162.70108 375.25195 149.59375 C 385.8756 164.50811 391.82813 181.03947 391.82812 198.33984 C 391.82812 229.62434 372.76872 258.31454 340.91992 279.50781 C 309.07113 300.70108 264.62927 314.02734 215.48438 314.02734 C 166.33945 314.02734 121.9053 300.70084 90.064453 279.50781 C 58.223607 258.31478 39.171875 229.62512 39.171875 198.33984 C 39.171884 159.18711 69.366459 124.01468 116.49023 102.87109 z " style="fill:#000000;stroke:none;stroke-width:3.8;stroke-linejoin:miter;stroke-miterlimit:4;stroke-dasharray:none;stroke-opacity:1;fill-opacity:1" />
 <rect x="464.64883" y="155.85602" width="0.50507629" height="0" id="rect16" style="opacity:0.40740739;fill:#000cff" />
 <path id="path11-5" d="m 335.49219,19.896484 -137.40625,179.408206 69.49218,96.58789 c 21.84605,-3.97192 41.80032,-11.22412 58.7168,-20.96289 L 248.42188,165.83789 359.97266,19.896484 Z M 232.52148,145.67578 141.38281,20.09375 67.867188,20.03125 182.24414,179.74414 C 145.21301,228.164 108.18116,276.58331 71.148438,325.00195 H 96.25 C 141.67286,265.22583 187.0973,205.4509 232.52148,145.67578 Z M 335.98242,288.5 c -16.61912,9.84557 -35.97112,17.68802 -57.20508,22.95703 l 9.81836,13.64649 h 73.51563 z" />
</svg>
