<?xml version="1.0" encoding="UTF-8"?>
<!-- Copyright © 2015 Igalia, S.L. All rights reserved. -->
<svg xmlns:svg="http://www.w3.org/2000/svg" xmlns="http://www.w3.org/2000/svg" xmlns:xlink="http://www.w3.org/1999/xlink" width="484.52" height="172.8" version="1.1" viewBox="0 0 484.52 172.8" style="enable-background:new;">
  <defs>
    <linearGradient id="redGradient" x1="25.133" y1="142.28" x2="147.37" y2="142.28" gradientUnits="userSpaceOnUse">
      <stop stop-color="#ff0800" offset="0"/>
      <stop stop-color="#670164" offset="1"/>
    </linearGradient>
    <linearGradient id="orangeGradient" x1="1765.1" y1="692.72" x2="1887.3" y2="692.72" gradientUnits="userSpaceOnUse" gradientTransform="matrix(0,-1,1,0,-550.666,1912.6035)">
      <stop stop-color="#f8fc83" offset="0"/>
      <stop stop-color="#ff8600" offset="1"/>
    </linearGradient>
    <linearGradient id="blueGradient" x1="1214.6" y1="2432.8" x2="1336.8" y2="2432.8" gradientUnits="userSpaceOnUse" gradientTransform="matrix(-1,0,0,-1,1361.9365,2463.2705)">
      <stop stop-color="#bfe7e5" offset="0"/>
      <stop stop-color="#0b4499" offset="1"/>
    </linearGradient>
    <linearGradient id="greenGradient" x1="-525.38" y1="1882.1" x2="-403.14" y2="1882.1" gradientUnits="userSpaceOnUse" gradientTransform="matrix(0,1,-1,0,1912.6035,550.667)">
      <stop stop-color="#eff711" offset="0"/>
      <stop stop-color="#93c016" offset="1"/>
    </linearGradient>
    <filter id="blendMultiplyFilter" color-interpolation-filters="sRGB">
      <feBlend mode="multiply" in="SourceGraphic" in2="BackgroundImage"/>
    </filter>
  </defs>
  <g id="Logo">
    <g id="Circle">
      <g id="CircleColorTop" filter="url(#blendMultiplyFilter)">
        <path fill="url(#redGradient)" d="m147.37,147.51c-20.223,20.229-66.438-15.846-86.324-35.74-9.534,9.531-25.535,25.381-35.915,35.76,13.474,13.469,34.926,25.27,61.608,25.27,26.674-0.001,47.705-12.358,60.631-25.29z"/>
        <path fill="url(#orangeGradient)" d="m147.35,25.265c20.229,20.228-15.998,66.601-35.887,86.487,9.537,9.539,25.533,25.377,35.91,35.758,13.471-13.479,25.272-34.928,25.272-61.603,0-26.679-12.36-47.707-25.29-60.642z"/>
        <path fill="url(#blueGradient)" d="M25.114,25.288c20.229-20.223,66.443,15.847,86.326,35.738,9.53-9.533,25.53-25.381,35.91-35.761-13.47-13.468-34.92-25.265-61.603-25.265-26.681,0-47.699,12.359-60.633,25.288z"/>
        <path fill="url(#greenGradient)" d="M25.133,147.53c-20.229-20.23,16.023-66.299,35.915-86.18-9.532-9.537-25.555-25.684-35.934-36.062-13.471,13.473-25.114,35.082-25.114,61.761,0,26.671,12.204,47.551,25.133,60.481z"/>
      </g>
    </g>
    <g id="Text" fill="#3f3f3f">
      <path d="m233.58,47.875c0,7.476-2.158,8.743-8.992,8.743-6.972,0-9.123-1.268-9.123-8.743,0-6.714,2.151-7.723,9.123-7.723,6.834,0.001,8.992,1.01,8.992,7.723zm-1.27,65.47c0,9.976,4.809,15.219,4.809,15.219s-6.383,5.037-11.303,5.037c-6.464,0-9.215-11.614-9.215-16.417v-50.182h15.709v46.343z"/>
      <path d="m420.96,47.875c0,7.476-2.158,8.743-8.998,8.743-6.969,0-9.121-1.268-9.121-8.743,0-6.714,2.152-7.723,9.121-7.723,6.84,0.001,8.998,1.01,8.998,7.723zm-1.271,65.47c0,9.976,4.807,15.219,4.807,15.219s-6.383,5.037-11.301,5.037c-6.463,0-9.215-11.614-9.215-16.417v-50.182h15.709v46.343z"/>
      <path d="m268.29,133c-17.734,0-27.111-7.348-27.111-33.573,0-26.346,9.755-34.326,31.037-34.326,6.846,0,15.158,0.992,21.822,2.763,6.857,1.823,6.299,7.504,6.299,7.504v51.168c0,25.207-14.059,30.788-34.451,30.788-4.951,0-11.018-0.669-16.115-1.901-6.658-1.607-4.258-11.141-4.258-11.141l0.859-3.428c5.955,1.899,13.301,3.166,19.383,3.166,11.91,0,18.875-3.297,18.875-15.202-3.545,2.15-8.993,4.182-16.34,4.182zm16.339-49.848s0.342-3.207-3.844-4.121c-2.848-0.621-5.912-1.009-8.57-1.009-11.145,0-14.818,2.914-14.818,21.28,0,16.086,3.416,20.144,14.438,20.144,6.965,0,12.795-2.158,12.795-6.081v-30.215z"/>
      <path d="m391.92,49.702v63.666c0,6.205,1.396,10.514,4.945,15.202,0,0-12.107,9.93-16.748,1.921-2.5-4.312-3.904-9.463-3.904-16.49v-73.978h6.482c9.934,0,9.225,9.68,9.225,9.68z"/>
      <path d="m484.52,122.66s0,5.698-6.57,7.616c-7.201,2.099-15.777,2.976-22.564,2.976-20.391,0-27.238-4.682-27.238-21.532,0-18.242,10.264-21.154,25.34-21.154,5.449,0,10.514,0.628,15.961,1.77,0-11.268-2.66-14.056-16.088-14.056-3.758,0-7.518,0.329-11,0.969-9.107,1.662-10.109-4.888-10.109-4.888l-1.313-5.836c3.5-0.924,7.814-1.813,12.459-2.457,4.273-0.587,8.824-0.963,13.26-0.963,19.125,0,27.863,5.826,27.863,25.082v32.473zm-15.072-6.676v-13.006c-3.545-0.762-8.107-1.14-12.791-1.14-8.869,0-12.039,1.016-12.039,9.248,0,8.739,2.406,10.135,11.906,10.135,3.303,0,6.676-0.467,9.68-1.202,3.332-0.792,3.244-4.035,3.244-4.035z"/>
      <path d="m365.44,122.66s0.004,5.698-6.572,7.616c-7.195,2.099-15.773,2.976-22.564,2.976-20.391,0-27.229-4.682-27.229-21.532,0-18.242,10.254-21.154,25.332-21.154,5.447,0,10.514,0.628,15.961,1.77,0-11.268-2.658-14.056-16.088-14.056-3.752,0-7.512,0.329-11,0.969-9.107,1.662-10.105-4.888-10.105-4.888l-1.318-5.836c3.496-0.924,7.814-1.813,12.463-2.457,4.271-0.587,8.822-0.963,13.254-0.963,19.129,0,27.867,5.826,27.867,25.082v32.473zm-15.072-6.676v-13.006c-3.549-0.762-8.107-1.14-12.795-1.14-8.865,0-12.033,1.016-12.033,9.248,0,8.739,2.404,10.135,11.906,10.135,3.303,0,6.676-0.467,9.678-1.202,3.333-0.792,3.244-4.035,3.244-4.035z"/>
    </g>
  </g>
</svg>
